<svg xmlns:xlink="http://www.w3.org/1999/xlink" id="Calque_1" data-name="Calque 1" xmlns="http://www.w3.org/2000/svg"
     viewBox="0 0 173.3 178.82">
    <defs>
        <style>
            .cls-1{fill:url(#radial-gradient);}.cls-2{fill:url(#radial-gradient-2);}.cls-3{fill:url(#radial-gradient-3);}.cls-4{fill:url(#radial-gradient-4);}.cls-5{fill:url(#radial-gradient-5);}.cls-6{fill:url(#radial-gradient-6);}
        </style>
        <radialGradient id="radial-gradient" cx="-107.08" cy="616.16" r="312.88"
                        gradientTransform="translate(520.15 -41.64) scale(0.5)" gradientUnits="userSpaceOnUse">
            <stop offset="0" stop-color="#ff0"/>
            <stop offset="1" stop-color="#33a76e"/>
        </radialGradient>
        <radialGradient id="radial-gradient-2" cx="631.16" cy="154.5" r="312.88"
                        gradientTransform="translate(-231.92 23.72) scale(1.22)" gradientUnits="userSpaceOnUse">
            <stop offset="0" stop-color="#e6f306"/>
            <stop offset="1" stop-color="#33a76e"/>
        </radialGradient>
        <radialGradient id="radial-gradient-3" cx="600.84" cy="510.21" r="312.93"
                        gradientTransform="translate(83.17 -128.24) scale(0.69)" xlink:href="#radial-gradient"/>
        <radialGradient id="radial-gradient-4" cx="600.83" cy="510.21" r="312.92"
                        gradientTransform="translate(83.17 -128.24) scale(0.69)" xlink:href="#radial-gradient"/>
        <radialGradient id="radial-gradient-5" cx="707.98" cy="361.24" r="238.27"
                        gradientTransform="translate(-143.39 -103.65) scale(0.9)" xlink:href="#radial-gradient"/>
        <radialGradient id="radial-gradient-6" cx="600.83" cy="510.23" r="312.9"
                        gradientTransform="translate(83.17 -128.24) scale(0.69)" xlink:href="#radial-gradient"/>
    </defs>
    <title>Logo CSLabs</title>
    <path class="cls-1"
          d="M388.93,318.23a52.62,52.62,0,0,0,38.61-16,61,61,0,0,0,5.16-5.85L420.22,287a39.89,39.89,0,0,1-3.68,4.21A39,39,0,1,1,361.34,236a39.09,39.09,0,0,1,55.2,0,40,40,0,0,1,3.68,4.22l12.48-9.37a58.71,58.71,0,0,0-5.16-5.85,54.63,54.63,0,0,0-93.25,38.63,54.61,54.61,0,0,0,54.64,54.62Z"
          transform="translate(-334.29 -208.23)"/>
    <path class="cls-2"
          d="M460.51,227.48q5-4.51,14.81-3.65t19.5,12.08l11.76-12q-7.86-8.62-14.51-12.15t-17.68-3.53A44.35,44.35,0,0,0,455.3,212a30.07,30.07,0,0,0-12.68,10.82,24.89,24.89,0,0,0,1.71,29.52A50.65,50.65,0,0,0,456.87,263q7.44,4.55,16.66,10.46t13.28,11.88q4.1,6-1.65,12t-15,4.43q-9.26-1.61-22.73-11.25L436,302.32a64.2,64.2,0,0,0,15.68,11.88q7.83,4,19.6,4t18.5-3.84a32.69,32.69,0,0,0,11.15-10.46,26.36,26.36,0,0,0,4.38-14.86q0-8.24-6.44-15.37t-18.41-14.35q-12-7.22-15.34-9.37a52,52,0,0,1-6.78-5.33,9.41,9.41,0,0,1-3.13-7.92Q455.52,232,460.51,227.48Z"
          transform="translate(-334.29 -208.23)"/>
    <path class="cls-3"
          d="M374.46,381.55H353.89V337.7a1.4,1.4,0,0,0-1.35-1.36h-2.79a1.35,1.35,0,0,0-1.35,1.36V385a1.34,1.34,0,0,0,1.35,1.35h24.71a1.35,1.35,0,0,0,1.36-1.35V382.9A1.35,1.35,0,0,0,374.46,381.55Z"
          transform="translate(-334.29 -208.23)"/>
    <path class="cls-4"
          d="M405.9,337.13a1.45,1.45,0,0,0-1.21-.79H404a1.35,1.35,0,0,0-1.21.79l-21.71,48.06a1.26,1.26,0,0,0,1.21,1.86h2.86a1.4,1.4,0,0,0,1.21-.79l17.78-40h.29l17.78,40a1.32,1.32,0,0,0,1.22.79h2.86a1.26,1.26,0,0,0,1.21-1.86Z"
          transform="translate(-334.29 -208.23)"/>
    <path class="cls-5"
          d="M459.89,360.91c3.36-1.93,7-5.93,7-11.43,0-7.5-5.93-13.14-14.64-13.14H436.61a1.35,1.35,0,0,0-1.35,1.36V385a1.36,1.36,0,0,0,1.35,1.36h16.28c9.21,0,15.57-5.79,15.57-13.79C468.46,366,463.68,362.48,459.89,360.91Zm-19.28-19.64h11.64c5.5,0,8.57,3.43,8.57,8.57s-3.07,8.93-8.57,8.93H440.61Zm12.86,40.28h-13V363.7h11.78c5.57,0,10.21,3.71,10.21,8.78A8.8,8.8,0,0,1,453.47,381.55Z"
          transform="translate(-334.29 -208.23)"/>
    <path class="cls-6"
          d="M491.74,358.34c-6-2.5-9.64-5.28-9.64-10.07,0-3,2.28-7.86,9.86-7.86,4.35,0,8.85,3,9.35,3.29a1.62,1.62,0,0,0,2.5-.64c.29-.43.57-.93.86-1.36a1.59,1.59,0,0,0-.43-2.43A23.35,23.35,0,0,0,492,335.63c-11.36,0-15.22,7.85-15.22,12.71,0,8.14,4.72,11.35,12.58,14.78,8.21,3.43,12.49,6.36,12.49,11.29,0,4.21-3.78,7.85-9.57,7.85-6.35,0-11.57-5-12.07-5.42-1-.86-1.78-.29-2.49.64-.36.43-.72.93-1.08,1.36a1.58,1.58,0,0,0,.43,2.43,23.33,23.33,0,0,0,15.07,5.78c8.35,0,15.43-5.43,15.43-12.85C507.6,365.91,501.38,362.27,491.74,358.34Z"
          transform="translate(-334.29 -208.23)"/>
</svg>