<?xml version="1.0" encoding="UTF-8"?>
<svg id="Layer_2" data-name="Layer 2" xmlns="http://www.w3.org/2000/svg" xmlns:xlink="http://www.w3.org/1999/xlink" viewBox="0 0 711.64 557.33">
  <defs>
    <style>
      .cls-1 {
        opacity: .7;
      }

      .cls-1, .cls-2, .cls-3, .cls-4 {
        isolation: isolate;
      }

      .cls-1, .cls-5, .cls-6, .cls-4 {
        fill: none;
        stroke-miterlimit: 10;
      }

      .cls-1, .cls-4 {
        stroke: #fff;
        stroke-linecap: round;
        stroke-width: 5px;
      }

      .cls-2 {
        font-family: AvenirNext-Medium, 'Avenir Next';
        font-size: 47.86px;
        font-weight: 500;
      }

      .cls-2, .cls-3 {
        fill: #4b5354;
      }

      .cls-7 {
        fill: #93bab7;
      }

      .cls-7, .cls-8, .cls-9, .cls-10, .cls-11, .cls-12 {
        stroke-width: 0px;
      }

      .cls-13 {
        letter-spacing: 0em;
      }

      .cls-8 {
        fill: #b5d99a;
      }

      .cls-14 {
        letter-spacing: -.03em;
      }

      .cls-9 {
        fill: url(#Dégradé_sans_nom_2);
      }

      .cls-3 {
        font-family: ZingRustDemo-Base, 'Zing Rust Demo';
        font-size: 93.62px;
      }

      .cls-5 {
        stroke-width: 1.61px;
      }

      .cls-5, .cls-6 {
        stroke: #5eb44c;
      }

      .cls-6 {
        stroke-width: 2.82px;
      }

      .cls-10 {
        fill: #c4c8ce;
      }

      .cls-11 {
        fill: #fff;
      }

      .cls-4 {
        opacity: .96;
      }

      .cls-15 {
        letter-spacing: -.02em;
      }

      .cls-12 {
        fill: #5eb44c;
      }

      .cls-16 {
        letter-spacing: .04em;
      }
    </style>
    <linearGradient id="Dégradé_sans_nom_2" data-name="Dégradé sans nom 2" x1="57.91" y1="2632.94" x2="57.91" y2="3128.79" gradientTransform="translate(297.91 3159.51) scale(1 -1)" gradientUnits="userSpaceOnUse">
      <stop offset="0" stop-color="#fff" stop-opacity="0"/>
      <stop offset=".53" stop-color="#fbe02f" stop-opacity=".2"/>
      <stop offset="1" stop-color="#fff" stop-opacity="0"/>
    </linearGradient>
  </defs>
  <g id="Affiche">
    <g id="Logo">
      <g id="Couleur">
        <path id="Background" class="cls-8" d="M318.34,10.04l-176.42,101.85c-23.18,13.39-37.47,38.14-37.47,64.91v203.73c0,26.77,14.28,51.52,37.47,64.91l176.42,101.85c23.18,13.39,51.75,13.39,74.95,0l176.42-101.85c23.18-13.39,37.47-38.14,37.47-64.91v-203.73c0-26.77-14.28-51.52-37.47-64.91L393.29,10.04c-23.2-13.39-51.77-13.39-74.95,0Z"/>
        <path class="cls-9" d="M580.57,192.16v172.98c0,26.77-14.29,51.52-37.47,64.91l-149.8,86.48c-23.2,13.39-51.77,13.39-74.95,0l-149.8-86.48c-23.2-13.39-37.47-38.14-37.47-64.91v-172.98c0-26.77,14.28-51.5,37.47-64.89l149.8-86.5c23.18-13.39,51.75-13.39,74.95,0l149.8,86.5c23.18,13.39,37.47,38.12,37.47,64.89Z"/>
        <g>
          <circle class="cls-6" cx="326.46" cy="73.4" r="11.61"/>
          <circle class="cls-6" cx="355.72" cy="109.06" r="11.61"/>
          <circle class="cls-6" cx="386.15" cy="73.4" r="11.61"/>
          <circle class="cls-5" cx="389.36" cy="160.13" r="6.64"/>
          <circle class="cls-5" cx="421.84" cy="127.3" r="6.64"/>
          <circle class="cls-5" cx="312.99" cy="160.13" r="6.64"/>
          <circle class="cls-5" cx="293.56" cy="131.71" r="6.64"/>
          <circle class="cls-5" cx="331.43" cy="198.32" r="6.64"/>
          <polyline class="cls-6" points="326.46 85.01 326.46 126.23 341.71 141.48 341.71 182.02 357.35 197.66 357.35 222.11 380.27 245.04"/>
          <polyline class="cls-5" points="312.99 166.76 312.99 188.64 291.14 210.48 291.14 217.87 346.82 273.53"/>
          <polyline class="cls-5" points="331.43 204.98 331.43 217.32 366.18 252.07"/>
          <polyline class="cls-6" points="355.72 120.67 355.72 177.94 432.73 254.93"/>
          <path class="cls-5" d="M389.36,166.76s-.55,21.31,0,21.86,74.84,74.84,74.84,74.84"/>
          <polyline class="cls-6" points="386.15 85.01 386.15 127.15 370.98 142.3 370.98 213.84 397.74 240.6"/>
          <polyline class="cls-5" points="421.84 133.94 421.84 155.63 407 170.47 407 188.62 471.8 253.42"/>
          <polyline class="cls-5" points="293.56 138.36 293.56 198.32 356.86 261.62"/>
        </g>
        <path class="cls-12" d="M569.72,111.89L393.29,10.04c-23.2-13.39-51.77-13.39-74.95,0l-176.42,101.85c-23.2,13.39-37.47,38.12-37.47,64.91v203.71c0,26.77,14.28,51.52,37.47,64.91l176.42,101.85c23.18,13.39,51.75,13.39,74.95,0l176.42-101.85c23.18-13.39,37.47-38.14,37.47-64.91v-203.71c0-26.79-14.29-51.52-37.47-64.91ZM580.57,365.14c0,26.77-14.29,51.52-37.47,64.91l-149.8,86.48c-23.2,13.39-51.77,13.39-74.95,0l-149.8-86.48c-23.2-13.39-37.47-38.14-37.47-64.91v-172.98c0-26.77,14.28-51.5,37.47-64.89l149.8-86.5c23.18-13.39,51.75-13.39,74.95,0l149.8,86.5c23.18,13.39,37.47,38.12,37.47,64.89v172.98h0Z"/>
        <g>
          <text class="cls-2" transform="translate(247.08 385.31)"><tspan x="0" y="0">La Cultu</tspan><tspan class="cls-15" x="180.16" y="0">r</tspan><tspan x="196.62" y="0">e</tspan></text>
          <text/>
        </g>
        <line class="cls-4" x1="271.28" y1="446.23" x2="440.18" y2="446.23"/>
        <line class="cls-1" x1="311.63" y1="468.92" x2="399.99" y2="468.92"/>
        <polygon class="cls-11" points="661.55 318.97 711.64 372.27 607.19 372.27 607.19 265.67 711.64 265.67 661.55 318.97"/>
        <polygon id="Languette_gauche" data-name="Languette gauche" class="cls-11" points="50.09 318.97 0 265.67 104.44 265.67 104.44 372.27 0 372.27 50.09 318.97"/>
      </g>
      <g id="Banderole">
        <rect class="cls-7" x="86.6" y="228.53" width="17.85" height="98.55"/>
        <rect class="cls-7" x="90.76" y="228.53" width="13.67" height="106.6"/>
        <g>
          <rect class="cls-10" x="86.6" y="228.53" width="17.85" height="98.55"/>
          <rect class="cls-10" x="90.76" y="228.53" width="13.67" height="106.6"/>
        </g>
        <g>
          <rect class="cls-10" x="607.18" y="228.54" width="17.85" height="98.55"/>
          <rect class="cls-10" x="607.2" y="228.54" width="13.67" height="106.6"/>
        </g>
        <polygon class="cls-11" points="611.12 320.93 355.82 320.93 100.51 320.93 100.51 214.33 356.06 214.33 611.12 214.33 611.12 320.93"/>
        <text class="cls-3" transform="translate(155.71 297.02)"><tspan x="0" y="0">H</tspan><tspan class="cls-13" x="47.09" y="0">A</tspan><tspan x="88.37" y="0">C</tspan><tspan class="cls-16" x="129.19" y="0">K</tspan><tspan class="cls-14" x="179.46" y="0">A</tspan><tspan x="218.03" y="0">THON</tspan></text>
      </g>
    </g>
  </g>
</svg>