<?xml version="1.0" encoding="UTF-8"?>
<svg id="Layer_2" data-name="Layer 2" xmlns="http://www.w3.org/2000/svg" xmlns:xlink="http://www.w3.org/1999/xlink" viewBox="0 0 711.63651744 557.33333333">
  <defs>
    <style>
      .cls-1 {
        opacity: .69999999;
      }

      .cls-1, .cls-2, .cls-3 {
        isolation: isolate;
      }

      .cls-1, .cls-4, .cls-5, .cls-3 {
        fill: none;
        stroke-miterlimit: 10;
      }

      .cls-1, .cls-3 {
        stroke: #fff;
        stroke-linecap: round;
        stroke-width: 5px;
      }

      .cls-6 {
        fill: #93bab7;
      }

      .cls-6, .cls-7, .cls-8, .cls-9, .cls-10, .cls-11, .cls-12 {
        stroke-width: 0px;
      }

      .cls-7 {
        fill: #b5d99a;
      }

      .cls-8 {
        fill: #4b5354;
      }

      .cls-9 {
        fill: url(#Dégradé_sans_nom_2);
      }

      .cls-4 {
        stroke-width: 1.61129999px;
      }

      .cls-4, .cls-5 {
        stroke: #5eb44c;
      }

      .cls-5 {
        stroke-width: 2.81879997px;
      }

      .cls-10 {
        fill: #c4c8ce;
      }

      .cls-11 {
        fill: #fff;
      }

      .cls-3 {
        opacity: .95999998;
      }

      .cls-12 {
        fill: #5eb44c;
      }
    </style>
    <linearGradient id="Dégradé_sans_nom_2" data-name="Dégradé sans nom 2" x1="57.90802534" y1="2632.9408931" x2="57.90802534" y2="3128.78732258" gradientTransform="translate(297.9102478 3159.51181439) scale(1 -1)" gradientUnits="userSpaceOnUse">
      <stop offset="0" stop-color="#fff" stop-opacity="0"/>
      <stop offset=".52929996" stop-color="#fbe02f" stop-opacity=".2"/>
      <stop offset="1" stop-color="#fff" stop-opacity="0"/>
    </linearGradient>
  </defs>
  <g id="Affiche">
    <g id="Logo">
      <g id="Couleur">
        <path id="Background" class="cls-7" d="M318.34383104,10.039833l-176.42489913,101.85415706c-23.18045602,13.38641035-37.47447095,38.13624132-37.47447095,64.90906202v203.72718228c0,26.7728784,14.27508908,51.52265167,37.47447095,64.90911972l176.42489913,101.85412821c23.18048487,13.38646805,51.74953118,13.38646805,74.9489419,0l176.42489913-101.85412821c23.18048487-13.38641035,37.47447095-38.13624132,37.47447095-64.90911972v-203.72718228c0-26.7728784-14.27506023-51.52265167-37.47447095-64.90911972L393.29277295,10.03980415c-23.19941073-13.38641035-51.76851474-13.38641035-74.9489419.00002885Z"/>
        <path class="cls-9" d="M580.57049841,192.15584768v172.98373937c0,26.7728784-14.29398609,51.52265167-37.47447095,64.90911972l-149.80331221,86.48240676c-23.19935302,13.38641035-51.76845704,13.38641035-74.9488842,0l-149.80331221-86.48240676c-23.19938188-13.38641035-37.47447095-38.13624132-37.47447095-64.90911972v-172.98373937c0-26.7728784,14.27508908-51.50372581,37.47447095-64.89019386l149.80331221-86.50133262c23.18048487-13.3864392,51.74953118-13.3864392,74.9489419,0l149.80331221,86.50133262c23.18042717,13.38646805,37.47441325,38.11731546,37.47441325,64.89019386Z"/>
        <g>
          <circle class="cls-5" cx="326.455062" cy="73.39850362" r="11.60916829"/>
          <circle class="cls-5" cx="355.7237304" cy="109.0578808" r="11.60916829"/>
          <circle class="cls-5" cx="386.1457222" cy="73.39850362" r="11.60916829"/>
          <circle class="cls-4" cx="389.36000245" cy="160.12671575" r="6.63651415"/>
          <circle class="cls-4" cx="421.8428934" cy="127.30350554" r="6.63651415"/>
          <circle class="cls-4" cx="312.99300592" cy="160.12671575" r="6.63651415"/>
          <circle class="cls-4" cx="293.55620605" cy="131.70890321" r="6.63651415"/>
          <circle class="cls-4" cx="331.42771615" cy="198.31967695" r="6.63651415"/>
          <polyline class="cls-5" points="326.455062 85.00767192 326.455062 126.22577017 341.7133437 141.48405187 341.7133437 182.0215116 357.34979638 197.65790658 357.34979638 222.10515461 380.26555002 245.0398341"/>
          <polyline class="cls-4" points="312.99300592 166.7632299 312.99300592 188.63909989 291.13606179 210.47711815 291.13606179 217.86991657 346.81836346 273.53329238"/>
          <polyline class="cls-4" points="331.42771615 204.97505925 331.42771615 217.32158595 366.17951759 252.07338739"/>
          <polyline class="cls-5" points="355.7237304 120.66699139 355.7237304 177.93750733 432.73357145 254.92842252"/>
          <path class="cls-4" d="M389.36000245,166.7632299s-.54833061,21.30861351,0,21.85694413,74.83550215,74.83550215,74.83550215,74.83550215"/>
          <polyline class="cls-5" points="386.1457222 85.00767192 386.1457222 127.15221407 370.9820121 142.29705601 370.9820121 213.84263218 397.73596464 240.59658471"/>
          <polyline class="cls-4" points="421.8428934 133.93996199 421.8428934 155.62674648 407.0005767 170.46906318 407.0005767 188.62017403 471.79625666 253.41579629"/>
          <polyline class="cls-4" points="293.55620605 138.36434322 293.55620605 198.31967695 356.85818565 261.62159884"/>
        </g>
        <path class="cls-12" d="M569.71761438,111.89399007L393.29271525,10.03986186c-23.19935302-13.3864392-51.76845704-13.3864392-74.9488842,0l-176.42489913,101.85412821c-23.19938188,13.38641035-37.47447095,38.11731546-37.47447095,64.90906202v203.70825642c0,26.7728784,14.27508908,51.52265167,37.47447095,64.90911972l176.42489913,101.85412821c23.18048487,13.38646805,51.74953118,13.38646805,74.9489419,0l176.42489913-101.85412821c23.18048487-13.38641035,37.47447095-38.13624132,37.47447095-64.90911972v-203.70825642c-.0000577-26.79180426-14.29404379-51.52265167-37.47452865-64.90906202ZM580.57049841,365.13958705c0,26.7728784-14.29398609,51.52265167-37.47447095,64.90911972l-149.80331221,86.48240676c-23.19935302,13.38641035-51.76845704,13.38641035-74.9488842,0l-149.80331221-86.48240676c-23.19938188-13.38641035-37.47447095-38.13624132-37.47447095-64.90911972v-172.98373937c0-26.7728784,14.27508908-51.50372581,37.47447095-64.89019386l149.80331221-86.50133262c23.18048487-13.3864392,51.74953118-13.3864392,74.9489419,0l149.80331221,86.50133262c23.18048487,13.38641035,37.47447095,38.11731546,37.47447095,64.89019386v172.98373937h-.0000577Z"/>
        <g id="Thème" class="cls-2">
          <path class="cls-8" d="M156.90728358,381.70263672h12.95605469v3.60791016h-17.01513672v-29.02783203h4.05908203v25.41992188Z"/>
          <path class="cls-8" d="M191.01909999,375.4296875v.65576172c0,.21923828-.01416016.4375-.04101562.65625h-15.45703125c.02685547.81494141.21142578,1.58154297.55371094,2.30029297.34130859.71923828.79931641,1.34423828,1.37353516,1.87304688.57373047.52929688,1.23632812.94335938,1.98828125,1.24169922.75146484.29833984,1.55126953.44775391,2.3984375.44775391,1.31201172,0,2.44628906-.28710938,3.40332031-.86083984.95654297-.57421875,1.70800781-1.27099609,2.25488281-2.09130859l2.70605469,2.17333984c-1.0390625,1.37744141-2.26220703,2.39111328-3.66943359,3.04199219-1.40820312.65039062-2.97265625.97607422-4.69482422.97607422-1.47558594,0-2.84277344-.24609375-4.09960938-.73828125-1.2578125-.49169922-2.33740234-1.18164062-3.23925781-2.0703125-.90185547-.88818359-1.61279297-1.9609375-2.13183594-3.21875-.51953125-1.25683594-.77929688-2.65087891-.77929688-4.18164062,0-1.50292969.25341797-2.890625.75976562-4.16162109.50683594-1.27099609,1.21240234-2.35742188,2.11621094-3.25976562.90380859-.90185547,1.97265625-1.60546875,3.20507812-2.11132812,1.23242188-.50537109,2.56054688-.75830078,3.98535156-.75830078,1.42382812,0,2.71826172.23242188,3.8828125.69677734,1.1640625.46533203,2.14990234,1.13476562,2.95849609,2.00878906.80761719.87548828,1.43115234,1.93408203,1.86914062,3.17773438.43847656,1.24414062.65722656,2.64453125.65722656,4.20263672ZM187.08306483,373.87158203c-.02734375-.76513672-.15722656-1.48242188-.38916016-2.15234375-.23291016-.66943359-.57421875-1.25048828-1.02539062-1.74267578-.45068359-.4921875-1.01123047-.88134766-1.68066406-1.16845703-.67041016-.28710938-1.45556641-.43066406-2.35742188-.43066406-.8203125,0-1.59277344.14355469-2.31689453.43066406-.72460938.28710938-1.35302734.67626953-1.88574219,1.16845703-.53320312.4921875-.97070312,1.07324219-1.31201172,1.74267578-.34228516.66992188-.54003906,1.38720703-.59472656,2.15234375h11.56201172Z"/>
          <path class="cls-8" d="M206.80376796,356.28271484h8.85595703c1.55810547,0,2.97900391.15722656,4.26416016.47119141,1.28466797.31445312,2.37792969.79980469,3.27978516,1.45556641.90234375.65625,1.59912109,1.49023438,2.09130859,2.50097656.49169922,1.01171875.73779297,2.22802734.73779297,3.64892578,0,1.44921875-.26660156,2.69287109-.79931641,3.73095703-.53320312,1.03955078-1.27099609,1.88623047-2.21386719,2.54199219-.94335938.65625-2.06445312,1.14160156-3.36230469,1.45556641-1.29833984.31494141-2.69970703.47167969-4.20263672.47167969h-4.59179688v12.75097656h-4.05908203v-29.02783203ZM210.86284999,369.11572266h4.30517578c.98388672,0,1.89208984-.08837891,2.7265625-.26660156.83349609-.17773438,1.55078125-.45117188,2.15234375-.8203125.60107422-.36865234,1.06591797-.85351562,1.39404297-1.45507812.328125-.60107422.49169922-1.33886719.49169922-2.21435547,0-.87451172-.17089844-1.60546875-.51220703-2.19335938-.34228516-.58740234-.80664062-1.06591797-1.39404297-1.43505859-.58789062-.36914062-1.29150391-.62841797-2.11132812-.77880859-.8203125-.14990234-1.70898438-.22558594-2.66503906-.22558594h-4.38720703v9.38916016Z"/>
          <path class="cls-8" d="M240.79253749,372.72363281c0-1.44873047-.4375-2.52148438-1.31201172-3.21875-.875-.69677734-2.03662109-1.04541016-3.48486328-1.04541016-1.09375,0-2.12597656.21191406-3.09570312.63574219-.97070312.42382812-1.78320312.96337891-2.43945312,1.61914062l-2.04980469-2.45996094c.95605469-.90185547,2.125-1.61230469,3.50537109-2.13183594,1.37988281-.51904297,2.86279297-.77880859,4.44824219-.77880859,1.39404297,0,2.60351562.19824219,3.62890625.59423828,1.02490234.39648438,1.86523438.93652344,2.52148438,1.61962891.65576172.68359375,1.14794922,1.49023438,1.47558594,2.41894531.328125.9296875.4921875,1.92675781.4921875,2.99316406v8.48681641c0,.65576172.02050781,1.34667969.06152344,2.0703125.04101562.72460938.11621094,1.31933594.22558594,1.78369141h-3.48486328c-.21923828-.92871094-.328125-1.85839844-.328125-2.78808594h-.12304688c-.7109375,1.0390625-1.60595703,1.84521484-2.68554688,2.41894531-1.08007812.57421875-2.35742188.86132812-3.83349609.86132812-.765625,0-1.56494141-.10253906-2.3984375-.30761719-.83398438-.20507812-1.59277344-.53955078-2.27539062-1.00439453-.68359375-.46484375-1.25048828-1.07958984-1.70166016-1.84521484-.45117188-.76464844-.67626953-1.70800781-.67626953-2.82910156,0-1.47607422.39550781-2.64453125,1.18896484-3.50537109.79248047-.86083984,1.83056641-1.51708984,3.11572266-1.96777344,1.28466797-.45117188,2.73291016-.74462891,4.34619141-.88183594,1.61230469-.13623047,3.23876953-.20507812,4.87890625-.20507812v-.53271484ZM239.84966639,376.04443359c-.95703125,0-1.94775391.04101562-2.97265625.12304688s-1.95458984.24609375-2.78808594.4921875c-.83398438.24609375-1.52392578.61474609-2.0703125,1.10693359-.54736328.4921875-.8203125,1.14794922-.8203125,1.96777344,0,.57421875.11621094,1.05273438.34863281,1.43505859.23193359.38330078.53955078.69726562.92236328.94287109.3828125.24609375.80615234.41748047,1.27099609.51269531.46484375.09619141.94335938.14355469,1.43505859.14355469,1.80419922,0,3.19091797-.53955078,4.16162109-1.61962891.96972656-1.07910156,1.45556641-2.43945312,1.45556641-4.07958984v-1.02490234h-.94287109Z"/>
          <path class="cls-8" d="M260.02154139,369.03369141h-5.16601562v10.09619141c0,1.17138672.21826172,2.00976562.65625,2.51367188.43652344.50439453,1.13378906.75585938,2.09082031.75585938.35498047,0,.73779297-.03710938,1.14794922-.11279297.41015625-.07470703.77880859-.1875,1.10693359-.33789062l.12304688,3.15673828c-.46484375.1640625-.97753906.29345703-1.53759766.38964844-.56054688.09521484-1.14160156.14355469-1.7421875.14355469-1.83154297,0-3.23291016-.50537109-4.20263672-1.51708984-.97070312-1.01074219-1.45556641-2.52783203-1.45556641-4.55126953v-10.53662109h-3.73095703v-3.15722656h3.73095703v-5.57568359h3.81298828v5.57568359h5.16601562v3.15722656Z"/>
          <path class="cls-8" d="M263.95708827,368.04931641c-.02734375-.81982422-.06835938-1.54345703-.12255859-2.17285156h3.64892578c.05419922.4921875.09521484,1.05957031.12304688,1.70166016.02685547.64257812.04101562,1.16845703.04101562,1.57861328h.12255859c.546875-1.14794922,1.34619141-2.07080078,2.39892578-2.76757812,1.05175781-.69726562,2.234375-1.04541016,3.54638672-1.04541016.60058594,0,1.10693359.0546875,1.51708984.16357422l-.1640625,3.56738281c-.54736328-.13671875-1.13476562-.20507812-1.76318359-.20507812-.9296875,0-1.73583984.17089844-2.41894531.51220703-.68359375.34228516-1.25048828.79980469-1.70166016,1.37353516-.45068359.57421875-.78564453,1.23730469-1.00439453,1.98876953-.21923828.75195312-.328125,1.53759766-.328125,2.35742188v10.20898438h-3.85400391v-15.25195312c0-.51904297-.01367188-1.18896484-.04101562-2.00927734Z"/>
          <path class="cls-8" d="M283.35015468,358.86572266c0,.7109375-.25097656,1.29833984-.75292969,1.76269531-.50146484.46533203-1.10498047.69726562-1.80957031.69726562s-1.30126953-.23925781-1.78955078-.71777344c-.48779297-.47753906-.73193359-1.05859375-.73193359-1.7421875,0-.71044922.24414062-1.30517578.73193359-1.78369141.48828125-.47802734,1.08496094-.71728516,1.78955078-.71728516s1.30810547.23925781,1.80957031.71728516c.50195312.47851562.75292969,1.07324219.75292969,1.78369141ZM282.7349203,385.31054687h-3.85400391v-19.43408203h3.85400391v19.43408203Z"/>
          <path class="cls-8" d="M295.58843593,366.43017578c1.07910156-.72412109,2.35742188-1.08642578,3.83349609-1.08642578,1.31201172,0,2.49365234.30078125,3.54638672.90185547,1.05175781.6015625,1.87890625,1.59912109,2.48046875,2.99316406.65576172-1.25732422,1.57128906-2.22070312,2.74707031-2.890625,1.17480469-.66943359,2.45996094-1.00439453,3.85400391-1.00439453,1.25683594,0,2.33691406.21191406,3.23876953.63525391.90234375.42431641,1.65380859.99121094,2.25488281,1.70166016.60107422.7109375,1.04589844,1.54443359,1.33251953,2.50097656.28710938.95703125.43066406,1.98193359.43066406,3.07470703v12.05419922h-3.85400391v-10.78320312c0-.79248047-.06835938-1.54394531-.20507812-2.25488281-.13671875-.71044922-.36865234-1.33886719-.69677734-1.88574219-.328125-.54638672-.765625-.984375-1.31201172-1.31201172-.54736328-.328125-1.24414062-.4921875-2.09130859-.4921875-.875,0-1.62646484.18457031-2.25488281.55371094-.62890625.36865234-1.14160156.84716797-1.53759766,1.43505859-.39648438.58789062-.68310547,1.25048828-.86083984,1.98828125-.17822266.73779297-.26660156,1.49023438-.26660156,2.25488281v10.49609375h-3.85400391v-11.56201172c0-.76513672-.06835938-1.46191406-.20507812-2.09082031-.13671875-.62841797-.36865234-1.16845703-.69677734-1.61962891s-.75195312-.80615234-1.27099609-1.06591797c-.51953125-.25976562-1.16210938-.38964844-1.92675781-.38964844-1.421875,0-2.60351562.58105469-3.546875,1.74267578-.94287109,1.16210938-1.41455078,2.71289062-1.41455078,4.65332031v10.33203125h-3.85400391v-15.25195312c0-.51904297-.01367188-1.18896484-.04101562-2.00927734-.02734375-.81982422-.06835938-1.54345703-.12255859-2.17285156h3.64892578c.05419922.4921875.09521484,1.04541016.12304688,1.66064453.02685547.61474609.04101562,1.12744141.04101562,1.53759766h.12255859c.4921875-1.03857422,1.27783203-1.91992188,2.35791016-2.64453125Z"/>
          <path class="cls-8" d="M345.50493983,375.55273437c0,1.50341797-.26660156,2.88378906-.79980469,4.140625-.53222656,1.2578125-1.27050781,2.34423828-2.21386719,3.25976562-.94238281.91601562-2.05664062,1.62646484-3.34082031,2.13183594-1.28515625.50537109-2.66503906.75878906-4.14160156.75878906-1.47558594,0-2.85644531-.25341797-4.140625-.75878906-1.28515625-.50537109-2.39257812-1.21582031-3.32128906-2.13183594-.9296875-.91552734-1.66015625-2.00195312-2.19335938-3.25976562-.53320312-1.25683594-.79980469-2.63720703-.79980469-4.140625,0-1.50292969.26660156-2.87646484.79980469-4.12060547.53320312-1.24365234,1.26367188-2.31640625,2.19335938-3.21875.92871094-.90185547,2.03613281-1.60546875,3.32128906-2.11132812,1.28417969-.50537109,2.66503906-.75830078,4.140625-.75830078,1.4765625,0,2.85644531.25292969,4.14160156.75830078,1.28417969.50585938,2.3984375,1.20947266,3.34082031,2.11132812.94335938.90234375,1.68164062,1.97509766,2.21386719,3.21875.53320312,1.24414062.79980469,2.61767578.79980469,4.12060547ZM341.48736171,375.57324219c0-.92675781-.14453125-1.8125-.43261719-2.65771484-.28808594-.84423828-.70507812-1.58642578-1.25390625-2.22705078s-1.22753906-1.15136719-2.03613281-1.53320312-1.734375-.57275391-2.77636719-.57275391-1.96777344.19091797-2.77636719.57275391c-.80957031.38183594-1.48730469.89257812-2.03613281,1.53320312-.54785156.640625-.96679688,1.3828125-1.25390625,2.22705078-.28808594.84521484-.43164062,1.73095703-.43164062,2.65771484s.14355469,1.81298828.43164062,2.65722656c.28710938.84472656.70605469,1.59423828,1.25390625,2.24853516.54882812.65380859,1.2265625,1.171875,2.03613281,1.55322266.80859375.38183594,1.734375.57226562,2.77636719.57226562s1.96777344-.19042969,2.77636719-.57226562c.80859375-.38134766,1.48730469-.89941406,2.03613281-1.55322266.54882812-.65429688.96582031-1.40380859,1.25390625-2.24853516.28808594-.84423828.43261719-1.73046875.43261719-2.65722656Z"/>
          <path class="cls-8" d="M355.34478358,358.86572266c0,.7109375-.25097656,1.29833984-.75292969,1.76269531-.50195312.46533203-1.10449219.69726562-1.80957031.69726562s-1.30078125-.23925781-1.7890625-.71777344c-.48828125-.47753906-.73242188-1.05859375-.73242188-1.7421875,0-.71044922.24414062-1.30517578.73242188-1.78369141.48828125-.47802734,1.08398438-.71728516,1.7890625-.71728516s1.30761719.23925781,1.80957031.71728516c.50195312.47851562.75292969,1.07324219.75292969,1.78369141ZM354.72954921,385.31054687h-3.85351562v-19.43408203h3.85351562v19.43408203Z"/>
          <path class="cls-8" d="M364.93706874,365.87646484c.0546875.4921875.09570312,1.04541016.12304688,1.66064453.02734375.61474609.04101562,1.12744141.04101562,1.53759766h.12304688c.24609375-.51904297.58105469-1.00488281,1.00488281-1.45556641.42285156-.45117188.90820312-.84716797,1.45507812-1.18896484s1.1484375-.60791016,1.8046875-.79980469c.65527344-.19091797,1.33886719-.28662109,2.04980469-.28662109,1.25683594,0,2.33691406.21191406,3.23925781.63525391.90136719.42431641,1.65332031.99121094,2.25488281,1.70166016.60058594.7109375,1.04492188,1.54443359,1.33203125,2.50097656.28710938.95703125.43066406,1.98193359.43066406,3.07470703v12.05419922h-3.85449219v-10.78320312c0-.79248047-.06152344-1.54394531-.18359375-2.25488281-.12304688-.71044922-.34863281-1.33886719-.67675781-1.88574219-.328125-.54638672-.77929688-.984375-1.35351562-1.31201172-.57324219-.328125-1.31152344-.4921875-2.21386719-.4921875-1.53125,0-2.78125.58105469-3.75097656,1.74267578-.97070312,1.16210938-1.45605469,2.71289062-1.45605469,4.65332031v10.33203125h-3.85351562v-15.25195312c0-.51904297-.01464844-1.18896484-.04101562-2.00927734-.02734375-.81982422-.06835938-1.54345703-.12304688-2.17285156h3.6484375Z"/>
          <path class="cls-8" d="M403.4771078,375.4296875v.65576172c0,.21923828-.01464844.4375-.04101562.65625h-15.45703125c.02636719.81494141.2109375,1.58154297.55273438,2.30029297.34179688.71923828.79980469,1.34423828,1.37402344,1.87304688.57421875.52929688,1.23632812.94335938,1.98828125,1.24169922s1.55078125.44775391,2.3984375.44775391c1.3125,0,2.44628906-.28710938,3.40332031-.86083984.95605469-.57421875,1.70800781-1.27099609,2.25488281-2.09130859l2.70605469,2.17333984c-1.0390625,1.37744141-2.26171875,2.39111328-3.66992188,3.04199219-1.40820312.65039062-2.97167969.97607422-4.69433594.97607422-1.47558594,0-2.84277344-.24609375-4.09960938-.73828125-1.2578125-.49169922-2.33691406-1.18164062-3.23925781-2.0703125-.90234375-.88818359-1.61328125-1.9609375-2.13183594-3.21875-.51953125-1.25683594-.77929688-2.65087891-.77929688-4.18164062,0-1.50292969.25292969-2.890625.75976562-4.16162109s1.21191406-2.35742188,2.11621094-3.25976562c.90429688-.90185547,1.97265625-1.60546875,3.20507812-2.11132812,1.23242188-.50537109,2.56054688-.75830078,3.98535156-.75830078,1.42382812,0,2.71777344.23242188,3.8828125.69677734,1.1640625.46533203,2.14941406,1.13476562,2.95800781,2.00878906.80859375.87548828,1.43164062,1.93408203,1.87011719,3.17773438.4375,1.24414062.65722656,2.64453125.65722656,4.20263672ZM399.54058436,373.87158203c-.02734375-.76513672-.15722656-1.48242188-.38964844-2.15234375-.23242188-.66943359-.57324219-1.25048828-1.02441406-1.74267578s-1.01171875-.88134766-1.68164062-1.16845703-1.45507812-.43066406-2.35742188-.43066406c-.81933594,0-1.59277344.14355469-2.31640625.43066406-.72460938.28710938-1.35253906.67626953-1.88574219,1.16845703s-.97070312,1.07324219-1.3125,1.74267578c-.34179688.66992188-.54003906,1.38720703-.59375,2.15234375h11.56152344Z"/>
          <path class="cls-8" d="M444.1489828,380.80078125c-1.1484375,1.55761719-2.63769531,2.82226562-4.46875,3.79248047-1.83203125.96972656-4.03222656,1.45507812-6.6015625,1.45507812-2.21386719,0-4.2578125-.37597656-6.12890625-1.12744141-1.87304688-.75146484-3.48535156-1.80371094-4.83789062-3.15673828-1.35351562-1.35302734-2.41308594-2.96533203-3.17773438-4.83789062-.765625-1.87207031-1.1484375-3.92919922-1.1484375-6.17089844,0-2.26806641.38964844-4.33886719,1.16894531-6.21142578.77832031-1.87158203,1.85839844-3.47070312,3.23828125-4.796875,1.38085938-1.32568359,3.01367188-2.35742188,4.90039062-3.09570312,1.88574219-.73779297,3.93554688-1.10693359,6.14941406-1.10693359.984375,0,1.98144531.09619141,2.99316406.28710938,1.01074219.19140625,1.98144531.47851562,2.91113281.86083984.92871094.38330078,1.77636719.85498047,2.54199219,1.41455078.76464844.56054688,1.42089844,1.20947266,1.96777344,1.94775391l-3.19824219,2.45996094c-.7109375-.98388672-1.71484375-1.796875-3.01269531-2.43945312-1.29882812-.64208984-2.70019531-.96386719-4.203125-.96386719-1.6953125,0-3.21875.30761719-4.57128906.92285156-1.35351562.61474609-2.5078125,1.45556641-3.46484375,2.52148438s-1.69433594,2.30273438-2.21386719,3.71044922c-.51953125,1.40820312-.77929688,2.90429688-.77929688,4.48925781,0,1.64013672.25292969,3.17138672.75878906,4.59228516.50585938,1.42138672,1.23046875,2.65869141,2.17285156,3.71044922.94335938,1.05224609,2.09179688,1.87939453,3.44433594,2.48046875,1.35253906.6015625,2.86328125.90185547,4.53027344.90185547,1.640625,0,3.12988281-.328125,4.46875-.98388672,1.33984375-.65576172,2.44628906-1.61230469,3.32128906-2.87011719l3.23925781,2.21435547Z"/>
          <path class="cls-8" d="M461.77886561,385.31054687c-.0546875-.4921875-.09570312-1.04541016-.12304688-1.66064453-.02734375-.61474609-.04101562-1.12744141-.04101562-1.53759766h-.08203125c-.49121094,1.03955078-1.31835938,1.92089844-2.48046875,2.64453125-1.16210938.72412109-2.453125,1.08691406-3.87402344,1.08691406-1.2578125,0-2.34375-.20507812-3.25976562-.61523438s-1.66699219-.97705078-2.25488281-1.70166016c-.58789062-.72363281-1.02539062-1.56445312-1.31152344-2.52148438-.28710938-.95605469-.43066406-1.98144531-.43066406-3.07470703v-12.05419922h3.85351562v10.7421875c0,.79296875.06152344,1.55126953.18457031,2.27539062.12304688.72460938.34863281,1.35986328.67675781,1.90673828s.77929688.98388672,1.35253906,1.31152344c.57421875.328125,1.3125.4921875,2.21484375.4921875,1.55761719,0,2.81445312-.58056641,3.77148438-1.74267578.95605469-1.16113281,1.43554688-2.71240234,1.43554688-4.65332031v-10.33203125h3.85351562v15.25195312c0,.51953125.01367188,1.18896484.04101562,2.00927734.02734375.81982422.06835938,1.54443359.12304688,2.17285156h-3.64941406Z"/>
          <path class="cls-8" d="M475.88238124,385.31054687h-3.85351562v-30.99609375h3.85351562v30.99609375Z"/>
          <path class="cls-8" d="M492.1177328,369.03369141h-5.16601562v10.09619141c0,1.17138672.21875,2.00976562.65625,2.51367188.43652344.50439453,1.13378906.75585938,2.09082031.75585938.35449219,0,.73828125-.03710938,1.14746094-.11279297.41015625-.07470703.77929688-.1875,1.10742188-.33789062l.12304688,3.15673828c-.46484375.1640625-.97753906.29345703-1.53710938.38964844-.56054688.09521484-1.14160156.14355469-1.74316406.14355469-1.83105469,0-3.23242188-.50537109-4.20214844-1.51708984-.97070312-1.01074219-1.45605469-2.52783203-1.45605469-4.55126953v-10.53662109h-3.73046875v-3.15722656h3.73046875v-5.57568359h3.81347656v5.57568359h5.16601562v3.15722656Z"/>
          <path class="cls-8" d="M509.78863124,385.31054687c-.0546875-.4921875-.09570312-1.04541016-.12304688-1.66064453-.02734375-.61474609-.04101562-1.12744141-.04101562-1.53759766h-.08203125c-.49121094,1.03955078-1.31835938,1.92089844-2.48046875,2.64453125-1.16210938.72412109-2.453125,1.08691406-3.87402344,1.08691406-1.2578125,0-2.34375-.20507812-3.25976562-.61523438s-1.66699219-.97705078-2.25488281-1.70166016c-.58789062-.72363281-1.02539062-1.56445312-1.31152344-2.52148438-.28710938-.95605469-.43066406-1.98144531-.43066406-3.07470703v-12.05419922h3.85351562v10.7421875c0,.79296875.06152344,1.55126953.18457031,2.27539062.12304688.72460938.34863281,1.35986328.67675781,1.90673828s.77929688.98388672,1.35253906,1.31152344c.57421875.328125,1.3125.4921875,2.21484375.4921875,1.55761719,0,2.81445312-.58056641,3.77148438-1.74267578.95605469-1.16113281,1.43554688-2.71240234,1.43554688-4.65332031v-10.33203125h3.85351562v15.25195312c0,.51953125.01367188,1.18896484.04101562,2.00927734.02734375.81982422.06835938,1.54443359.12304688,2.17285156h-3.64941406Z"/>
          <path class="cls-8" d="M519.91558436,368.04931641c-.02734375-.81982422-.06835938-1.54345703-.12304688-2.17285156h3.6484375c.0546875.4921875.09570312,1.05957031.12304688,1.70166016.02734375.64257812.04101562,1.16845703.04101562,1.57861328h.12304688c.546875-1.14794922,1.34570312-2.07080078,2.3984375-2.76757812,1.05175781-.69726562,2.234375-1.04541016,3.546875-1.04541016.60058594,0,1.10644531.0546875,1.51660156.16357422l-.1640625,3.56738281c-.546875-.13671875-1.13378906-.20507812-1.76269531-.20507812-.9296875,0-1.73632812.17089844-2.41894531.51220703-.68359375.34228516-1.25.79980469-1.70117188,1.37353516-.45117188.57421875-.78613281,1.23730469-1.00488281,1.98876953-.21875.75195312-.328125,1.53759766-.328125,2.35742188v10.20898438h-3.85351562v-15.25195312c0-.51904297-.01464844-1.18896484-.04101562-2.00927734Z"/>
          <path class="cls-8" d="M552.22417811,375.4296875v.65576172c0,.21923828-.01464844.4375-.04101562.65625h-15.45703125c.02636719.81494141.2109375,1.58154297.55273438,2.30029297.34179688.71923828.79980469,1.34423828,1.37402344,1.87304688.57421875.52929688,1.23632812.94335938,1.98828125,1.24169922s1.55078125.44775391,2.3984375.44775391c1.3125,0,2.44628906-.28710938,3.40332031-.86083984.95605469-.57421875,1.70800781-1.27099609,2.25488281-2.09130859l2.70605469,2.17333984c-1.0390625,1.37744141-2.26171875,2.39111328-3.66992188,3.04199219-1.40820312.65039062-2.97167969.97607422-4.69433594.97607422-1.47558594,0-2.84277344-.24609375-4.09960938-.73828125-1.2578125-.49169922-2.33691406-1.18164062-3.23925781-2.0703125-.90234375-.88818359-1.61328125-1.9609375-2.13183594-3.21875-.51953125-1.25683594-.77929688-2.65087891-.77929688-4.18164062,0-1.50292969.25292969-2.890625.75976562-4.16162109s1.21191406-2.35742188,2.11621094-3.25976562c.90429688-.90185547,1.97265625-1.60546875,3.20507812-2.11132812,1.23242188-.50537109,2.56054688-.75830078,3.98535156-.75830078,1.42382812,0,2.71777344.23242188,3.8828125.69677734,1.1640625.46533203,2.14941406,1.13476562,2.95800781,2.00878906.80859375.87548828,1.43164062,1.93408203,1.87011719,3.17773438.4375,1.24414062.65722656,2.64453125.65722656,4.20263672ZM548.28765468,373.87158203c-.02734375-.76513672-.15722656-1.48242188-.38964844-2.15234375-.23242188-.66943359-.57324219-1.25048828-1.02441406-1.74267578s-1.01171875-.88134766-1.68164062-1.16845703-1.45507812-.43066406-2.35742188-.43066406c-.81933594,0-1.59277344.14355469-2.31640625.43066406-.72460938.28710938-1.35253906.67626953-1.88574219,1.16845703s-.97070312,1.07324219-1.3125,1.74267578c-.34179688.66992188-.54003906,1.38720703-.59375,2.15234375h11.56152344Z"/>
          <path class="cls-8" d="M561.48980311,385.31054687h-3.85351562v-30.99609375h3.85351562v30.99609375Z"/>
        </g>
        <line class="cls-3" x1="271.28329693" y1="446.23343237" x2="440.18308973" y2="446.23343237"/>
        <line class="cls-1" x1="311.63167116" y1="468.9223065" x2="399.98594927" y2="468.9223065"/>
        <polygon class="cls-11" points="661.55084626 318.96776051 711.63651744 372.26771194 607.19208533 372.26771194 607.19208533 265.66780909 711.63651744 265.66780909 661.55084626 318.96776051"/>
        <polygon id="Languette_gauche" data-name="Languette gauche" class="cls-11" points="50.08570003 318.96776051 0 265.66780909 104.44446096 265.66780909 104.44446096 372.26771194 0 372.26771194 50.08570003 318.96776051"/>
      </g>
      <g id="Banderole">
        <rect class="cls-6" x="86.59587536" y="228.5336574" width="17.8485856" height="98.54533407"/>
        <rect class="cls-6" x="90.75549652" y="228.5336574" width="13.67003858" height="106.59990285"/>
        <g>
          <rect class="cls-10" x="86.59587536" y="228.5336574" width="17.8485856" height="98.54533407"/>
          <rect class="cls-10" x="90.75549652" y="228.5336574" width="13.67003858" height="106.59990285"/>
        </g>
        <g>
          <rect class="cls-10" x="607.18377642" y="228.54127391" width="17.8485856" height="98.54533407"/>
          <rect class="cls-10" x="607.20045195" y="228.53885047" width="13.67006744" height="106.59990285"/>
        </g>
        <polygon class="cls-11" points="611.12485583 320.93414576 355.818302 320.93414576 100.51171932 320.93414576 100.51171932 214.33424291 356.06404966 214.33424291 611.12485583 214.33424291 611.12485583 320.93414576"/>
        <g class="cls-2">
          <path class="cls-8" d="M186.79107264,297.01953125h-2.52783203l-1.02978516-.09375h-.65527344l-.65527344-.09326172-.56152344-.84277344.09375-.74902344.09326172-.84228516.1875-.84277344.37451172-.65527344v-1.31054688l.37451172-1.96582031.09326172-.65527344v-.65527344l.09375-.65527344.09375-1.21679688.18701172-.46826172.09375-1.31054688.28076172-1.40429688.18701172-1.77832031.56201172-2.80859375.37451172-1.02978516.18701172-.93603516v-1.12353516l.28076172-1.31054688.1875-.65527344.18701172-1.31054688v-.65527344l.1875-1.12304688-.84277344.09326172h-.65527344l-.84228516-.18701172-2.99560547.28076172-1.40429688-.28076172-1.59130859-.09375-.09375.46826172-.09375.74853516-.37451172,1.31103516-.18701172,1.21679688-.37451172.65527344v1.59130859l-.18701172.65527344-.46826172,2.15332031-.56152344,2.05957031.09326172.56152344-.46777344,1.12304688-.09375.46826172-.37451172,1.21679688-.18701172,1.40429688-.56201172,2.62109375-.09326172.74902344-.28076172,1.31054688v.65527344l-.1875,1.31054688-.18701172.74902344-.09375.65527344-.1875,1.40429688-.46777344.93603516-.74902344.37451172-.84228516.09375-1.12353516.09326172-1.40429688.1875h-.74853516l-.65576172-.28076172-.65527344.09326172-.65527344.1875-1.12304688-.1875h-2.99560547l-1.87255859-.18701172-.37402344-1.02978516v-.74902344l.37402344-.84228516.46826172-1.21728516.09375-.93603516.18701172-.84228516v-.65527344l.1875-.56201172-.1875-.65527344.56152344-1.02978516.1875-.65527344-.09375-.74853516.37451172-1.31054688-.09375-1.31054688.37451172-.65576172.37451172-.84228516.09375-.65527344v-.74902344l.28076172-1.31054688.18701172-.74902344.46826172-3.27636719.18701172-.56152344.09375-.56152344.1875-.74902344-.09375-.65527344.37451172-1.31054688.09375-1.21728516.28076172-.93603516.18701172-1.12304688v-.65527344l.1875-1.40429688.28076172-.65527344.28076172-.74902344v-.74902344l.37451172-1.31054688.46777344-2.71484375.09375-.56152344.18701172-1.31054688.09375-1.31054688.56152344-1.31054688.09375-.65527344.09375-1.31054688.37451172-1.96582031.18701172-1.21728516.1875-.74853516.28076172-1.96582031.09375-.46826172v-1.31054688l.37402344-.74902344.09375-.74902344.09375-.56152344.28076172-1.21679688v-1.96582031l.65527344-1.21728516-.09375-1.31054688.1875-.65527344.09375-.65527344.28076172-.65527344-.09375-.74902344.18701172-.65527344.28125-1.21679688.09326172-1.12353516.09375-1.02978516.84228516-.46777344h2.34033203l3.83837891-.09375,1.31054688.09375h2.05957031l.93603516-.28076172,1.12353516.18701172.93603516.1875.18701172.84228516v.56152344l.09375.65527344-.28076172,1.12353516-.09375.56152344-.09375,1.31054688-.28076172.84277344-.09375.84228516-.37402344,1.77880859-.1875,1.31054688-.09375,1.12353516-.28076172.65527344v1.49755859l-.18701172.65527344-.1875.74902344-.09326172,1.21679688-.1875.46826172-.09326172,1.12353516v.56152344l-.1875.46777344-.18701172.74902344-.09375.65527344-.28076172.56201172.09326172.65527344-.28076172,1.21679688-.18701172.65527344.09375.56152344-.1875.74902344-.09375.56152344-.18701172.74902344.65527344.09375h.74902344l2.71484375.09375.74853516-.09375,1.12353516.09375.74902344-.09375,1.96582031.09375.09375-.46826172.18701172-1.02978516.37451172-.84228516v-.65527344l.09375-.65576172.46777344-1.40380859-.18701172-.56201172.46777344-1.21679688.09375-.56152344.09375-.65527344.09326172-.74902344.09375-.65527344.1875-.56152344v-.65527344l.28076172-1.21728516.09375-1.21679688.37402344-.84277344v-1.12304688l-.09326172-.74902344.09326172-.65527344.37451172-1.31054688v-.74902344l.28076172-1.21679688.1875-.56152344.18701172-1.21728516.09375-.56152344.37451172-.84277344.18701172-.65527344-.09326172-.65527344.09326172-.56152344.74902344-.84228516.56152344-.09375.84277344-.09375h3.37011719l1.87207031.09375h2.62109375l1.49804688.18701172.65527344.28076172.65527344.84277344-.09375.56152344.09375.65527344-.37451172.56201172.09375.37402344-.09375.56201172v.65527344l-.37451172,1.12304688-.09375,1.31103516v.74853516l-.09326172.65527344-.1875.65527344-.18701172.74902344-.09375,1.21679688v.65527344l-.18701172,1.21728516-.09375.65527344-.28076172,1.21679688-.09375.65527344-.18701172.65527344-.09375.74902344-.1875,1.21679688-.09326172.56201172-.46826172,1.12304688-.09375.56201172-.18701172,1.21679688-.1875,1.49755859-.09326172,1.40429688-.46826172,1.31054688-.09375,1.40429688-.09326172.56152344-.28076172,1.31054688-.09375.65527344-.37451172.56201172v.74902344l.18701172.65527344-.28076172.56152344-.09326172.65527344v1.21679688l-.09375.65527344-.46826172,1.21728516-.09326172.65527344-.37451172,1.68505859v.56152344l-.1875,1.02978516-.28076172,1.31054688-.18701172.65527344.09326172.56152344-.56152344,1.96582031.09375.56201172-.1875.65527344-.18701172.56152344-.09375.65527344-.28076172,1.31054688v.74902344l-.09375.65527344-.28076172,1.31054688-.28076172,1.02978516-.18701172.56152344-.09375,1.31054688-.09375,1.49804688-.28076172,1.31054688-.09375.65527344-.18701172,1.21679688-.1875.65527344-.09326172,1.02978516-.1875,1.12353516-.28076172.46777344-.09375.74902344-.18701172.65527344v.74902344l-.1875.65527344-.37402344.56152344-1.12353516.28076172h-1.40429688l-.56152344.09375-1.21728516.09375h-1.87207031l-.74902344.09326172-.74853516-.18701172Z"/>
          <path class="cls-8" d="M208.97759608,297.11328125l-.65527344-.09375-6.83349609-.09375-.84277344-.18701172-.18701172-.74902344.18701172-.65527344.09375-.56152344.56152344-1.12353516.74902344-1.21679688.93603516-2.80859375.56201172-1.12304688.46777344-1.12353516,1.02978516-2.24658203.37451172-1.21728516.74902344-1.68505859.18701172-.56152344.46826172-.65527344.46777344-1.12353516.1875-.56152344.09375-.65527344.28076172-.56152344.46777344-1.21728516.28125-.65527344.65527344-1.31054688.18701172-.65527344.18701172-.84228516.46826172-.74902344.56152344-1.12353516.1875-.65527344.56152344-1.31054688.09375-.56152344.28076172-.65527344.28076172-.56152344.46826172-1.31054688.28076172-.56201172.74902344-2.62109375.28076172-.74853516.65527344-1.21728516.46777344-1.59130859.56201172-1.02978516.28076172-.56152344.28076172-1.21728516.46826172-.65527344.28076172-1.21679688.18701172-.46826172.56201172-1.21679688.28076172-1.31054688.46777344-.65527344.37451172-.56152344.74902344-1.96582031.46826172-1.21728516.28076172-.56152344.56152344-.84277344.28076172-.93603516.28076172-.65527344.84277344-1.68505859.18701172-.65527344.28076172-.56152344.1875-.56152344.18701172-.65527344.56201172-1.02978516.37402344-.56201172.1875-.46777344.56152344-1.68505859.65527344-1.21728516.84277344-1.68457031.28076172-.65527344.28076172-.56201172.37451172-1.02978516.65527344-.09326172h.93603516l1.77880859.09326172.93603516-.09326172h1.49755859l1.77880859-.09375h.84277344l.65527344.18701172.84228516-.09326172h1.49804688l.46777344.18701172.65527344.46826172.28076172,4.02539062v2.05908203l.1875.56201172v1.68505859l.09375,3.36962891v1.31103516l.09326172,1.21679688.1875,1.87207031v1.31054688l.09326172,1.40429688-.09326172.65527344v2.05957031l.18701172,1.31054688v1.87207031l.09375,1.31054688-.09375.56201172.09375,1.21679688v.56152344l.09375,1.49804688.18701172,1.02978516v3.65087891l.09375,1.12304688.09326172.74902344v2.80859375l.09375,4.30615234v.65527344l.09375,1.40429688-.09375,1.40380859.09375,1.31103516-.09375.65527344.1875,3.55712891v.56152344l.09326172,1.21728516.09375.65527344v1.40380859l-.09375,1.31054688.09375.74902344v.84277344l.09375,2.05908203v1.96582031c.09326172.37451172.18701172,1.21728516-.28076172,1.49804688-.37451172.09375-.65527344,0-1.02978516,0l-.65527344.09375-.74902344-.09375h-1.31054688l-2.05957031.09375h-.74902344l-1.12304688-.09375-.65527344.09375-.93652344.09326172-1.21679688-.09326172h-1.40429688l-.37451172-.28076172-.18701172-.93652344-.09375-1.68505859-.09326172-.93603516.09326172-.93603516v-4.39990234l-.09326172-.74853516-2.05957031-.09375-1.49804688-.1875-4.11865234-.09326172h-2.52783203l-.46777344,1.02978516-.65527344,1.21679688-.1875.65527344-.28076172.65527344-.37451172,1.12353516-.93603516,1.77832031-.56152344,1.40429688-.28125,1.02978516-.28076172.46826172-.37451172.65527344-.56152344.37402344-2.62109375-.09326172-.74902344.09326172-1.40429688-.09326172ZM228.63628749,274.64599609l.56201172-.46777344.09326172-1.31054688-.09326172-.74902344.09326172-.74902344v-2.43408203l.09375-.65527344v-1.59130859l.1875-.74902344-.09375-2.24658203.09375-3.55712891.09326172-3.37011719-.09326172-2.15332031-.74902344.28125-.37451172,1.21679688-.46826172,1.49755859-.28076172.93652344-.46777344,1.49755859-.37451172.74902344-.37451172.93603516-.09375.65527344-.37451172.65527344-.28076172.84277344-.28076172.65527344-.28076172.84228516-.56201172,2.05957031-.09326172.65527344-.46826172,1.40429688-.37451172.65527344-.46777344,1.59130859-.1875.65527344-.18701172.84228516-.28076172.65527344.65527344.56201172h.74853516l1.02978516.09375.84277344.09326172h2.80810547Z"/>
          <path class="cls-8" d="M263.74322108,298.04931641h-.65527344l-.65527344-.09375-1.02978516-.09375-.74902344-.09326172-.56152344-.09375-.93603516-.09375-.65527344-.18701172-.56201172-.09375-1.21679688-.46777344-1.12353516-.37451172-.56152344-.46826172-.93603516-.56152344-.46826172-.37451172-.56152344-.37451172-1.21679688-.93603516-.37451172-.46826172-.46826172-.46777344-.65527344-1.31054688-.84228516-1.21728516-.28076172-1.21679688-.1875-.56152344-.18701172-1.21728516-.1875-.65527344v-1.77832031l-.09375-.74902344v-.84277344l.09375-.65527344v-2.43359375l.09375-1.96582031.09375-.74902344.09326172-1.31054688.1875-1.31054688v-.65527344l.09375-.56201172.18701172-1.96582031.37451172-1.31054688-.09375-.84228516.1875-.74902344.28076172-1.02978516-.09375-.46826172.28076172-1.68505859.37451172-.56152344v-1.31054688l.09375-.28076172v-.37451172l.28076172-1.02978516.18701172-1.02978516.28125-.93603516.09326172-1.12353516v-.56152344l.28076172-.56152344v-1.31054688l.46826172-1.87255859.18701172-.65527344.1875-1.02978516.09375-.93603516.28076172-.56152344.09326172-.65527344.1875-.65527344.09375-.56152344.09326172-.65527344.28076172-.65527344.28125-1.21728516.65527344-1.87207031.56152344-1.87255859.37451172-1.31054688.56152344-1.59130859.46826172-1.12304688.56152344-1.31103516.37451172-1.02929688.65527344-.56201172.65527344-.93603516.74902344-.93603516,1.31054688-1.31054688.56152344-.46826172,1.21679688-.56152344.56201172-.28076172,1.96582031-.84277344,1.59130859-.28076172,1.21679688-.28076172.65527344-.09375h1.40429688l1.77880859-.09326172h1.49755859l2.34033203.28076172.84277344.28076172h.93603516l1.31054688.18701172.56152344.09375.65527344.18701172.65527344.09375.37451172.28076172,1.02978516.1875,1.31054688.46777344,1.21728516.93652344,1.02978516.93603516.18701172.46777344.46826172.84277344.28076172.46777344.18701172.65527344.46826172.93652344.18701172,1.02978516.09375,1.12304688.09375,1.21679688.09326172.84277344.09375,1.40429688v2.05957031l-.09375.93603516-.18701172.74853516-.18701172,1.40429688-.1875,1.49804688-.56152344,3.65087891-.1875.74902344-.46777344,2.43359375-.37451172.37451172-1.12353516.09375-1.31054688.09375-5.89746094-.09375-2.71484375-.37451172-.65527344-1.02978516v-1.31054688l.18701172-.65527344.37451172-1.68505859.1875-1.31054688.56152344-2.05957031.09375-1.21679688.18701172-1.31054688v-1.40429688l-.56152344-1.68505859-1.02978516-.56152344-1.31054688-.37451172h-1.02978516l-1.12353516.18701172-1.02929688.37451172-.84277344,1.02978516-.28076172.56152344-.28076172.65527344-.37451172,1.59179688-.46826172,1.21679688-.56152344,1.59130859v.56152344l-.37451172,1.12353516-.28076172,1.40429688-.28076172,1.12304688-.28076172.84277344-.09375.65527344-.09375.56152344-.18701172.65527344-.1875,1.31054688-.46777344,1.40429688-.74902344,3.74462891-.09375.74902344-.37451172,1.49755859-.09326172.65527344-.1875,1.21728516-.18701172.74853516-.28076172,1.40429688v1.96582031l-.28125.65527344-.09326172.65527344v.74902344l-.09375.65527344-.18701172.65527344.09326172.65527344-.28076172,1.96582031v.74902344l-.28076172,1.31054688-.09375,1.31054688v.93603516l.09375.56201172v.65527344l.37451172,1.40380859.74902344.65527344,1.40380859.46826172,1.49804688-.18701172h1.40429688l1.31054688-.84277344.37451172-.46826172.74853516-1.68457031.46826172-1.31054688.37451172-1.21728516.09375-.56152344.09326172-.46826172.28076172-1.12304688.28125-1.40429688.18701172-.84277344.09375-.65527344.46777344-1.21679688.1875-.93603516.65527344-.74902344.74902344-.09375,2.43359375.09375h1.96582031l4.58740234.28076172,1.12304688.09375.65527344.65527344.37451172.65527344v1.02978516l-.18701172.56152344v.65527344l-.1875,1.21728516-.09375,1.02929688-.18701172.46826172-.09375.65527344-.09326172.37451172-.28125,1.96582031-.18701172.56152344-.56152344,2.34033203-.28076172,1.12353516-.09375.65527344-.1875.65527344-.28076172.56152344-.56152344,1.49804688-.46826172,1.12304688-.28076172.65576172-.37451172.56152344-.46777344.56152344-.28076172.56152344-.1875.56201172-1.40429688,1.68505859-1.40380859,1.21679688-1.49804688.93603516-.65527344.28076172-2.43408203.56201172-1.12304688.28076172-1.12353516.18701172-1.21679688.28076172h-1.40429688l-1.21679688.09375-.93652344.1875-.84228516-.09375Z"/>
          <path class="cls-8" d="M288.27007655,296.45800781l.09375-1.40429688v-.65527344l.28076172-.65527344-.09375-.65527344.28076172-1.21728516.09375-.56152344.37451172-1.21679688v-.65527344l.09326172-.74902344v-.65527344l.28125-1.21679688v-.46826172l.18701172-1.68505859.28076172-.65527344.09375-1.31054688.18701172-.56152344v-.56201172l.37451172-1.21679688v-.65527344l.46826172-1.96582031.28076172-1.31054688.18701172-1.40429688.37451172-2.62109375.28125-1.31054688.18701172-.74902344.28076172-1.40429688.37451172-1.40380859.09375-1.31054688.09326172-.65576172.1875-1.40380859.37451172-1.87255859.28076172-1.31054688.09375-.74853516.09326172-.65576172.28076172-1.49755859.28125-1.31054688.09326172-1.02978516.09375-1.31054688.28076172-.56152344v-.56201172l.1875-.65527344.09326172-1.21679688.28125-.56152344.18701172-1.31054688-.09375-.65527344.28076172-1.12353516.1875-.65527344v-.56152344l.18701172-.65527344v-.56201172l.09375-1.31054688.18701172-.56152344.09375-.74902344.37451172-2.43408203.37451172-1.21679688v-1.21679688l.28076172-1.02978516v-1.21728516l.1875-1.12304688.28076172-1.77880859.28076172-.84228516.37451172-.28076172h.84228516l.65527344-.1875,1.31054688.09375h2.34033203l1.31054688.09375,1.77880859-.09375h.65527344l1.40429688.09375h1.40429688l.74853516.37402344.28076172.65576172-.18701172.93603516-.18701172,1.59130859-.09375,1.31054688-.28076172,1.59130859-.28076172,1.40429688-.09375.65527344-.1875,1.87207031-.18701172.74902344-.18701172.84277344-.09375.93603516-.1875.65527344v.65527344l-.18701172.56152344-.46826172,2.52783203-.28076172,1.12304688-.28076172,1.68505859.18701172.65527344.93652344-.93603516.56152344-1.12353516,1.02978516-1.21679688.56152344-.84228516.56152344-.74902344.74902344-.65527344.46826172-.93603516.18701172-.46826172.74902344-.93603516.65527344-.93603516.74902344-.84277344.46777344-.84228516.93652344-1.40429688.84228516-1.02978516.18701172-.65527344.56201172-.74902344,1.02978516-1.40429688.84228516-1.21679688,1.02978516-1.40429688.56152344-.56152344.28125-.74902344.74853516-1.02978516.93603516-.28076172,1.68505859.09375h2.90234375l.93603516.09375.46777344-.09375h1.77880859l1.31054688-.1875,1.87255859.1875.84228516-.09375,1.12353516.28076172.28076172.65527344-.74902344,1.12353516-.28076172.65527344-.74902344.93603516-.84228516,1.02978516-.46826172.65527344-.46777344.46826172-.09375.56152344-.37451172.46826172-.65527344.93603516-.37451172.65527344-.46826172.93603516-.74853516.84228516-.37451172.56201172-.56201172.56152344-.37402344.74902344-.74902344.84228516-.37451172.93652344-.56152344.65527344-.46826172.65527344-.93603516,1.12304688-.56152344.84277344-.56201172.74853516-1.40429688,2.05957031-.65527344.93603516-.84228516,1.12353516-1.02978516,1.59130859-.65527344.84277344-.46826172.84228516-.65527344,1.02978516-1.68505859,2.24658203-.93603516,1.87255859.1875.93603516.46777344,1.49755859.1875.93652344.46777344,1.12304688.28076172,1.12353516.74902344,2.62109375.1875.74902344.37451172,1.21679688.46777344,1.02978516.37451172.84228516.09375.74902344.28076172.74902344.09375.56152344.37451172.84277344.09326172.65527344.46826172,1.02978516.37451172,1.12304688.18701172.65527344.74902344,1.12353516.09375.65527344v.56152344l.37402344.65527344.37451172,1.21728516v.56152344l.74902344,1.12353516.09375.84228516.09375.65527344.28076172.56152344v.74902344l.28076172.65527344.28076172.46826172.09375.74902344.28076172,1.02929688.65527344,1.12353516.37451172,1.02978516.56152344,1.59130859.1875.46826172-.09375.84228516-2.15332031.09375h-2.34033203l-2.90185547-.09375-.84228516.09375h-1.96630859l-.65527344-.09375-2.05908203.09375-1.12353516-.18701172-.37451172-.56201172-.28076172-1.21679688-.84277344-2.24658203-.74853516-2.62109375-.37451172-1.12353516-.37451172-.74902344-.28076172-1.21679688-.1875-.65527344-.18701172-.56201172-.46826172-1.31054688-.37402344-1.31054688-.37451172-1.12304688-.56201172-1.21728516-.18701172-1.21679688-.09375-.56152344-.28076172-.65527344-.46826172-1.02978516v-.65527344l-.46777344-1.02978516-.09375-.74902344-.28076172-.84228516-.28076172-.74902344-.84277344-2.43408203-.56152344-1.40429688h-.28076172l-.09375.56201172-.18701172.74853516-.09375.65527344-.18701172.56201172-.1875,1.96582031-.18701172,1.21679688-.1875,1.12353516-.09326172.65527344v.56152344l-.28125,1.31054688-.18701172.74902344-.09375,1.31054688-.09375.74902344-.09326172,1.21679688-.28076172.65527344-.1875.56201172-.18701172,1.96582031-.28076172,1.49755859-.28125,1.12353516-.18701172.56152344-.09375.65527344-.09326172,1.21679688-.37451172,1.31103516-.37451172,1.02929688v1.12353516l-.46826172,1.87207031-1.02978516.37451172h-2.43359375l-.84277344.09375-1.12353516-.09375-1.31054688.09375h-.56152344l-.28076172-.09375-.65527344.09375h-1.77880859l-.84228516-.09375-.93603516.09375-.74902344-.56152344Z"/>
          <path class="cls-8" d="M341.34820155,297.11328125l-.65527344-.09375-6.83349609-.09375-.84277344-.18701172-.18701172-.74902344.18701172-.65527344.09375-.56152344.56201172-1.12353516.74853516-1.21679688.93603516-2.80859375.56201172-1.12304688.46777344-1.12353516,1.02978516-2.24658203.37451172-1.21728516.74902344-1.68505859.18701172-.56152344.46826172-.65527344.46826172-1.12353516.18701172-.56152344.09375-.65527344.28076172-.56152344.46777344-1.21728516.28125-.65527344.65527344-1.31054688.18701172-.65527344.18701172-.84228516.46826172-.74902344.56152344-1.12353516.1875-.65527344.56152344-1.31054688.09375-.56152344.28076172-.65527344.28076172-.56152344.46826172-1.31054688.28076172-.56201172.74902344-2.62109375.28076172-.74853516.65527344-1.21728516.46777344-1.59130859.56201172-1.02978516.28076172-.56152344.28076172-1.21728516.46826172-.65527344.28076172-1.21679688.18701172-.46826172.56201172-1.21679688.28076172-1.31054688.46777344-.65527344.37451172-.56152344.74902344-1.96582031.46826172-1.21728516.28076172-.56152344.56152344-.84277344.28076172-.93603516.28076172-.65527344.84277344-1.68505859.18701172-.65527344.28076172-.56152344.1875-.56152344.18701172-.65527344.56201172-1.02978516.37402344-.56201172.1875-.46777344.56152344-1.68505859.65527344-1.21728516.84277344-1.68457031.28076172-.65527344.28076172-.56201172.37451172-1.02978516.65527344-.09326172h.93652344l1.77832031.09326172.93554688-.09326172h1.49804688l1.77929688-.09375h.84179688l.65527344.18701172.84277344-.09326172h1.49804688l.46777344.18701172.65527344.46826172.28125,4.02539062v2.05908203l.18652344.56201172v1.68505859l.09375,3.36962891v1.31103516l.09375,1.21679688.1875,1.87207031v1.31054688l.09375,1.40429688-.09375.65527344v2.05957031l.1875,1.31054688v1.87207031l.09277344,1.31054688-.09277344.56201172.09277344,1.21679688v.56152344l.09375,1.49804688.1875,1.02978516v3.65087891l.09375,1.12304688.09375.74902344v2.80859375l.09375,4.30615234v.65527344l.09277344,1.40429688-.09277344,1.40380859.09277344,1.31103516-.09277344.65527344.18652344,3.55712891v.56152344l.09375,1.21728516.09375.65527344v1.40380859l-.09375,1.31054688.09375.74902344v.84277344l.09375,2.05908203v1.96582031c.09375.37451172.1875,1.21728516-.28125,1.49804688-.37402344.09375-.65527344,0-1.02929688,0l-.65527344.09375-.74902344-.09375h-1.31054688l-2.05957031.09375h-.74902344l-1.12304688-.09375-.65527344.09375-.93652344.09326172-1.21679688-.09326172h-1.40429688l-.37402344-.28076172-.1875-.93652344-.09375-1.68505859-.09375-.93603516.09375-.93603516v-4.39990234l-.09375-.74853516-2.05908203-.09375-1.49804688-.1875-4.11865234-.09326172h-2.52783203l-.46777344,1.02978516-.65527344,1.21679688-.1875.65527344-.28076172.65527344-.37451172,1.12353516-.93603516,1.77832031-.56152344,1.40429688-.28125,1.02978516-.28076172.46826172-.37451172.65527344-.56152344.37402344-2.62109375-.09326172-.74902344.09326172-1.40429688-.09326172ZM361.00738124,274.64599609l.56152344-.46777344.09375-1.31054688-.09375-.74902344.09375-.74902344v-2.43408203l.09375-.65527344v-1.59130859l.18652344-.74902344-.09375-2.24658203.09375-3.55712891.09375-3.37011719-.09375-2.15332031-.74902344.28125-.37402344,1.21679688-.46777344,1.49755859-.28125.93652344-.46777344,1.49755859-.37451172.74902344-.37451172.93603516-.09375.65527344-.37451172.65527344-.28076172.84277344-.28076172.65527344-.28076172.84228516-.56201172,2.05957031-.09326172.65527344-.46826172,1.40429688-.37451172.65527344-.46777344,1.59130859-.1875.65527344-.18701172.84228516-.28076172.65527344.65527344.56201172h.74853516l1.02978516.09375.84277344.09326172h2.80859375Z"/>
          <path class="cls-8" d="M384.50542811,297.01953125h-.65527344l-.84277344-.74902344.1875-1.40429688.09375-1.96582031.65527344-1.96582031.18652344-.65527344.09375-1.40429688.1875-.56152344.09375-1.31054688v-.65527344l.46777344-1.31054688.09375-.65527344-.09375-.74902344.46777344-1.96582031v-.74902344l.28125-1.12304688.28125-1.40429688.18652344-.65527344.09375-.65527344.1875-1.21679688.1875-.56201172.09277344-1.31054688.46875-.93603516-.1875-.93603516.09375-.65527344.1875-.65527344.46777344-1.31054688.37402344-1.40429688.1875-.65527344-.1875-.65527344.46875-1.12353516.18652344-.56152344v-1.31054688l.28125-.93603516v-.84277344l.1875-.65527344.37402344-.56152344v-.65527344l.1875-.56201172.28027344-1.40380859-.09277344-.65527344.46777344-1.02978516v-.93603516l.1875-.46826172v-.74902344l.09277344-.65527344.1875-.65527344.46777344-1.49755859.09375-.56201172v-.56152344l.09375-.65527344v-.56152344l.28125-1.21728516.18652344-.65527344.1875-1.40380859.09375-1.49804688h-5.0546875l-1.31054688-.09375-.65527344.09375h-.84277344l-.93652344-.09375h-.74902344l-.84179688-.28076172-.28125-.84228516.1875-1.12353516.28027344-.74902344v-.74853516l-.09375-.65527344.375-1.31054688.1875-.56201172.09277344-1.31054688.375-1.21679688.28125-.56201172v-1.31054688l.09277344-.56152344.46875-1.02978516.84179688-.65527344.65527344-.09375h2.43457031l.46777344.09375h.65527344l.65527344-.09375h6.92773438l.65527344.09375h2.05957031l5.99121094-.09375,1.40332031.09375,1.96679688-.09375.84179688.09375h5.8046875l1.31054688.09375.84179688.18701172.1875.74902344v.56152344l-.09375.65527344-.1875.74902344v.65527344l-.09277344.56152344-.1875.65576172v.56152344l-.1875,1.12304688-.1875.65576172-.09277344.56152344-.09375,1.12304688-.375,1.21728516-.18652344.65527344-.09375,1.31054688-.375.84228516-.93554688.09375-.84277344-.09375h-1.12304688l-.84277344.09375h-.93652344l-3.93164062-.09375-.84277344.09375-.18652344.65527344.09375.56152344-.28125.65527344v.56201172l-.1875.56152344-.18652344,1.21679688-.09375.65527344-.375,1.68505859-.37402344.74902344.1875.46826172-.46875,1.31054688-.37402344,1.21679688v.56152344l-.09375,1.12353516-.09375.56152344v.65527344l-.46777344,1.12353516-.1875,1.40429688-.1875.65527344-.28027344,1.31054688-.28125.56152344v.65527344l-.09375,1.21728516-.28027344,1.12304688-.375.65527344-.09277344,1.31054688-.1875.56201172v.56152344l-.28125,1.31054688-.28027344,1.40429688-.1875.84228516v.93603516l-.09375.56201172-.1875.56152344-.09375.65527344-.37402344,1.12353516-.09375.65527344-.09375.56152344.09375.65527344-.28027344,1.31054688-.28125,1.49804688-.37402344,1.21679688-.09375.65527344-.28125,1.21679688-.46777344,1.96582031-.1875.74902344-.28027344,1.31054688.09277344.74902344-.46777344,2.05957031-.56152344,2.62109375-.1875,1.31054688-.28027344,1.31054688-.1875.56152344-1.12304688.46826172h-8.14453125l-1.12304688.28076172-.84277344-.28076172Z"/>
          <path class="cls-8" d="M441.3286703,297.01953125h-2.52734375l-1.02929688-.09375h-.65527344l-.65527344-.09326172-.5625-.84277344.09375-.74902344.09375-.84228516.1875-.84277344.37402344-.65527344v-1.31054688l.375-1.96582031.09375-.65527344v-.65527344l.09375-.65527344.09277344-1.21679688.1875-.46826172.09375-1.31054688.28125-1.40429688.18652344-1.77832031.56152344-2.80859375.375-1.02978516.1875-.93603516v-1.12353516l.28027344-1.31054688.1875-.65527344.1875-1.31054688v-.65527344l.18652344-1.12304688-.84179688.09326172h-.65527344l-.84277344-.18701172-2.99609375.28076172-1.40429688-.28076172-1.59082031-.09375-.09375.46826172-.09375.74853516-.37402344,1.31103516-.1875,1.21679688-.375.65527344v1.59130859l-.18652344.65527344-.46875,2.15332031-.56152344,2.05957031.09375.56152344-.46777344,1.12304688-.09375.46826172-.37402344,1.21679688-.1875,1.40429688-.56152344,2.62109375-.09375.74902344-.28125,1.31054688v.65527344l-.18652344,1.31054688-.1875.74902344-.09375.65527344-.1875,1.40429688-.46777344.93603516-.74902344.37451172-.84277344.09375-1.12304688.09326172-1.40429688.1875h-.74902344l-.65527344-.28076172-.65527344.09326172-.65527344.1875-1.12304688-.1875h-2.99609375l-1.87207031-.18701172-.37402344-1.02978516v-.74902344l.37402344-.84228516.46875-1.21728516.09277344-.93603516.1875-.84228516v-.65527344l.1875-.56201172-.1875-.65527344.56152344-1.02978516.1875-.65527344-.09375-.74853516.375-1.31054688-.09375-1.31054688.37402344-.65576172.375-.84228516.09277344-.65527344v-.74902344l.28125-1.31054688.1875-.74902344.46777344-3.27636719.1875-.56152344.09375-.56152344.18652344-.74902344-.09375-.65527344.375-1.31054688.09375-1.21728516.28027344-.93603516.1875-1.12304688v-.65527344l.1875-1.40429688.28027344-.65527344.28125-.74902344v-.74902344l.37402344-1.31054688.46875-2.71484375.09375-.56152344.18652344-1.31054688.09375-1.31054688.56152344-1.31054688.09375-.65527344.09375-1.31054688.37402344-1.96582031.1875-1.21728516.1875-.74853516.28027344-1.96582031.09375-.46826172v-1.31054688l.375-.74902344.09375-.74902344.09277344-.56152344.28125-1.21679688v-1.96582031l.65527344-1.21728516-.09375-1.31054688.1875-.65527344.09375-.65527344.28027344-.65527344-.09375-.74902344.1875-.65527344.28125-1.21679688.09375-1.12353516.09277344-1.02978516.84277344-.46777344h2.34082031l3.83789062-.09375,1.31054688.09375h2.05957031l.93554688-.28076172,1.12402344.18701172.93554688.1875.1875.84228516v.56152344l.09375.65527344-.28125,1.12353516-.09277344.56152344-.09375,1.31054688-.28125.84277344-.09375.84228516-.37402344,1.77880859-.1875,1.31054688-.09375,1.12353516-.28027344.65527344v1.49755859l-.1875.65527344-.1875.74902344-.09375,1.21679688-.18652344.46826172-.09375,1.12353516v.56152344l-.1875.46777344-.1875.74902344-.09375.65527344-.28027344.56201172.09375.65527344-.28125,1.21679688-.1875.65527344.09375.56152344-.18652344.74902344-.09375.56152344-.1875.74902344.65527344.09375h.74902344l2.71484375.09375.74902344-.09375,1.12304688.09375.74902344-.09375,1.96582031.09375.09375-.46826172.18652344-1.02978516.375-.84228516v-.65527344l.09375-.65576172.46777344-1.40380859-.1875-.56201172.46875-1.21679688.09375-.56152344.09277344-.65527344.09375-.74902344.09375-.65527344.1875-.56152344v-.65527344l.28027344-1.21728516.09375-1.21679688.375-.84277344v-1.12304688l-.09375-.74902344.09375-.65527344.37402344-1.31054688v-.74902344l.28125-1.21679688.18652344-.56152344.1875-1.21728516.09375-.56152344.37402344-.84277344.1875-.65527344-.09375-.65527344.09375-.56152344.74902344-.84228516.56152344-.09375.84277344-.09375h3.37011719l1.87207031.09375h2.62109375l1.49804688.18701172.65527344.28076172.65527344.84277344-.09375.56152344.09375.65527344-.375.56201172.09375.37402344-.09375.56201172v.65527344l-.37402344,1.12304688-.09375,1.31103516v.74853516l-.09375.65527344-.18652344.65527344-.1875.74902344-.09375,1.21679688v.65527344l-.1875,1.21728516-.09375.65527344-.28027344,1.21679688-.09375.65527344-.1875.65527344-.09375.74902344-.18652344,1.21679688-.09375.56201172-.46777344,1.12304688-.09375.56201172-.1875,1.21679688-.1875,1.49755859-.09375,1.40429688-.46777344,1.31054688-.09375,1.40429688-.09375.56152344-.28027344,1.31054688-.09375.65527344-.375.56201172v.74902344l.1875.65527344-.28027344.56152344-.09375.65527344v1.21679688l-.09375.65527344-.46777344,1.21728516-.09375.65527344-.375,1.68505859v.56152344l-.18652344,1.02978516-.28125,1.31054688-.1875.65527344.09375.56152344-.56152344,1.96582031.09375.56201172-.1875.65527344-.1875.56152344-.09277344.65527344-.28125,1.31054688v.74902344l-.09375.65527344-.28027344,1.31054688-.28125,1.02978516-.1875.56152344-.09375,1.31054688-.09277344,1.49804688-.28125,1.31054688-.09375.65527344-.1875,1.21679688-.18652344.65527344-.09375,1.02978516-.1875,1.12353516-.28027344.46777344-.09375.74902344-.1875.65527344v.74902344l-.1875.65527344-.37402344.56152344-1.12402344.28076172h-1.40332031l-.5625.09375-1.21679688.09375h-1.87207031l-.74902344.09326172-.74902344-.18701172Z"/>
          <path class="cls-8" d="M477.55816249,298.23632812l-1.21777344.09375-.65527344-.09375-.84179688-.09326172-2.15332031-.65527344-.74902344-.09375-1.40429688-.37451172-.65527344-.37451172-1.31054688-.84228516-1.68457031-1.40429688-1.31054688-1.49804688-.28125-.46777344-.46777344-.46826172-.28125-.56152344-.46777344-.65527344-.74902344-1.21728516v-.56152344l-.28125-.65527344-.09277344-.56152344-.1875-.46826172-.1875-.56152344-.09375-.65527344-.18652344-.56152344-.09375-1.31054688-.09375-.56201172-.28125-1.87207031.1875-.65527344v-1.77880859l.28125-.93603516-.09375-.74902344v-.65527344l.18652344-2.05957031.375-1.31054688v-.74853516l.1875-1.31103516v-.65527344l.37402344-1.31054688-.1875-.46777344.1875-1.21728516.1875-.65527344.28027344-1.68505859.28125-1.12304688v-1.21679688l.28027344-1.12353516v-.65527344l.28125-.56152344.1875-.65527344v-.56201172l.18652344-.65527344-.09277344-.56152344.56152344-.93603516.18652344-.65527344v-1.31054688l.1875-1.12353516.28125-.65527344.09375-.56152344.18652344-1.31054688.375-2.34033203.46777344-.65527344.1875-1.21728516.56152344-1.21679688.28125-.65527344.37402344-1.12353516.46777344-1.31054688.56152344-1.12304688.375-.65576172.84277344-1.21679688.09277344-.65527344.375-.56152344.74902344-1.21728516.74902344-1.12304688.65527344-.46826172.46777344-.56152344,1.31054688-1.40429688,1.21679688-.84228516.74902344-.28076172.65527344-.46826172,1.12304688-.65527344,1.12402344-.56152344,1.40429688-.37451172.56152344-.09375,1.40429688-.37451172.93554688-.09375,1.68554688-.28076172,1.31054688-.09326172,1.12304688-.09375,1.68457031.09375.5625.09326172,1.02929688.09375,1.49804688.18701172.74902344.28125.74902344.09326172.56152344.1875,1.40429688.65527344,1.68457031,1.12304688.74902344.46826172.46777344.56152344,1.03027344.84277344,1.02929688.93603516.46777344.56152344.28125.65527344.56152344,1.21728516.28125.56152344.1875.56152344.18652344.65527344.28125,1.40429688.1875,1.77880859.09277344.74853516v.65576172l-.09277344,1.21679688-.09375.56152344.09375,1.21679688v.65576172l-.09375,1.21679688-.1875.65527344-.09375.56152344.09375.65527344v.93603516l-.09375.56201172-.1875,1.31054688-.09277344,1.40429688-.09375,1.49755859-.1875.65527344-.1875,1.49804688.09375.93603516-.46777344,1.02978516.09375,1.12304688-.375,1.21728516-.1875,1.21679688-.28027344,1.21679688-.09375,1.12353516-.28125,1.21679688-.28027344.56201172-.28125,1.68505859v.84228516l-.18652344.65527344-.1875,1.31054688-.28125.56152344-.93554688,3.27685547.09375.56152344-.46875,1.12353516-.28027344.56152344-.09375,1.02978516-.46777344,1.02978516-.28125,1.12304688v.65527344l-.28125,1.02978516-.46777344.65527344-.09375.93603516-.65527344,1.31103516-.74902344,1.68457031-.46777344.65527344-.84277344,1.21728516-.37402344.56152344-.46777344.56152344-.1875.56201172-1.12304688,1.12304688-.5625.46826172-.46777344.56152344-1.12304688.84277344-1.12402344.74902344-.37402344.28076172-2.15332031.84228516-.65527344.09375-.74902344.18701172-1.31054688.28076172-.65527344.09375-1.02929688.28076172-2.05957031.28125-2.43359375-.28125ZM480.45952968,285.78613281l1.31054688-.37451172.84277344-.37451172,1.31054688-.93603516.65527344-1.31054688.56152344-1.31054688.1875-.65527344v-.74902344l.28125-1.40429688.18652344-.65527344.1875-1.31054688.28125-.74902344.09277344-1.31054688.28125-.65527344.28125-1.21679688.09277344-.74902344.28125-.56152344v-.74902344l-.09375-.28076172.28125-.84277344.28027344-1.40380859.1875-2.15332031.28125-.84228516.28027344-.74902344.1875-1.77880859.28027344-.56152344-.09277344-1.59130859.37402344-1.40429688.1875-1.12353516.18652344-.74853516.1875-.65527344-.09375-.65576172.09375-1.21679688.1875-.74902344.28027344-1.31054688.1875-.84228516v-1.21679688l.1875-1.68505859.09375-1.21728516.1875-1.31054688-.375-1.87207031-.37402344-.56201172-.65527344-.84228516-1.49804688-.65527344-1.77832031.09375-.74902344.18701172-1.49804688.56152344-.93652344.84277344-.65527344,1.02978516-.37402344,1.12304688-.375.65527344-.56152344,1.21728516-.18652344.65527344-.1875.74902344-.56152344,1.96582031v.18701172l-.09375.74902344-.28125,1.31054688-.09375.56152344-.37402344,1.31054688-.28125,1.31054688-.28027344,1.49804688-.09375.65527344-.1875.65527344-.1875,1.40429688-.28027344.74853516-.375,1.49804688-.18652344.65527344-.1875,1.31054688v.65527344l-.09375.65527344.09375.74902344-.28125.65527344-.46777344,1.31054688.09375.74902344-.1875.65527344.09375.37451172-.1875.84228516v.74902344l-.18652344.65527344v.74902344l-.28125,1.40380859v.65527344l-.28027344.65527344.28027344.65527344-.09375,1.12353516-.37402344.93603516.28027344.65527344v2.62109375l.28125.65527344.1875.37451172.56152344.84277344.46777344.46777344.74902344.28125.74902344.18701172.56152344.09375h1.21679688Z"/>
          <path class="cls-8" d="M506.1099203,297.01953125l-.46777344-1.12353516.18652344-.74853516v-1.49804688l.1875-1.49755859.375-1.31054688.09277344-.65527344.28125-1.31103516.1875-.46777344.28027344-1.31054688.1875-.84277344.28125-1.49755859v-.65527344l.18652344-.74902344v-1.21679688l.375-.65527344.09375-1.12353516.09277344-.65527344.28125-1.12353516.09375-.56152344-.09375-.65527344.1875-1.21679688.37402344-1.49804688.1875-1.12304688.1875-.84277344.28027344-1.02978516.1875-1.12304688.09375-.65527344.18652344-.56201172.09375-1.21679688.09375-.56152344v-.56201172l.46777344-1.12304688.09375-.56201172.09375-.65527344.09375-1.31054688.09375-.93603516.46777344-1.12353516.1875-.74853516.1875-.93652344v-1.31054688l.09375-.74853516.28027344-.74902344v-.74902344l.28125-.65527344v-.65527344l.18652344-.65527344.1875-1.21679688.28125-1.02978516.28027344-.84277344v-1.12304688l.09375-.65527344.1875-.56201172.46777344-2.62109375v-.65527344l.375-.84228516.18652344-.84277344.09375-1.21679688.09375-.65527344.09375-.56152344.09375-.65527344.18652344-.56201172.09375-.65527344.1875-1.21679688.1875-1.12353516.28027344-1.21679688v-.74902344l.28125-1.21679688.1875-.56152344.28027344-.46826172.56152344-1.02978516.93652344-.18701172,1.31054688-.09375,1.59179688.09375h.84179688l1.21679688-.09375,1.77929688.09375,1.12304688-.09375,1.40429688.09375h1.31054688l1.03027344.28076172.56152344.84228516.09375.65527344.37402344.93603516.1875,1.12353516.09375,1.02978516.37402344,1.31054688.37402344,2.24658203.28125,1.49804688.28125,1.59130859.28027344,1.31054688.375,1.87207031.18652344.74902344.09375.65527344.1875,1.40429688.28027344,1.21679688v.56201172l.28125,1.02978516v.65527344l.09375,1.02929688.28027344,1.40429688.1875,1.59179688.28125,1.59130859.09375,1.49755859.18652344,1.31054688.1875.74902344.28125,2.52734375.37402344,2.15332031.1875,2.05957031v.65527344l.1875.65527344.18652344,1.12304688.28125,2.52783203.28027344,2.05957031h.28125l.09375-1.87255859.1875-2.24658203v-1.31054688l.28027344-4.49365234.28125-1.96582031v-3.18261719l.28027344-1.31054688.09375-.56152344.09375-.65527344.09375-.74902344.09375-1.31054688.18652344-.56201172.1875-1.31054688v-.56152344l.375-1.21679688v-1.12353516l.09277344-1.12353516v-.65527344l.5625-1.12304688-.09375-.65527344.28027344-1.68505859v-.56152344l.28125-1.21728516.09375-.65527344.1875-.56152344.18652344-1.31054688.09375-.74902344.28125-1.31054688.18652344-.65527344.28125-.74902344v-.84228516l.09375-.56201172.28027344-1.49755859.375-1.96582031.74902344-1.31054688.37402344-.28076172,1.77832031-.37451172,1.96679688.18701172.65527344-.09375h.93554688l2.15332031.09375h.93554688l1.31152344-.09375,1.31054688.28125.56152344.28076172.09375.74902344v.74853516l-.28125,1.31054688.09375.74902344-.28125,2.05957031-.18652344,1.31054688-.5625,2.24658203-.28027344,1.02978516-.28125,1.68505859-.18652344.74902344-.28125,1.96582031-.37402344,1.49755859-.1875,1.49804688-.28125.84228516-.1875.74902344-.18652344.65527344v1.21679688l-.1875.65527344-.37402344,2.80859375-.28125.84277344-.09375,1.02929688-.09375.65527344-.18652344.74902344-.28125,1.21728516-.1875.65527344-.28027344,1.21679688-.1875,1.31054688-.1875.74902344.09375.84228516-.1875.56201172-.09277344.65527344-.1875.56152344-.09375.65527344-.09375.56152344v1.21728516l-.28027344.56152344-.28125,1.31054688-.1875.84228516-.09375.84277344-.09277344.56152344-.09375.65527344-.09375.56201172v.56152344l-.375,1.31054688-.18652344,1.31054688-.1875.93603516-.375.84277344-.37402344,1.12304688-.09375,1.02978516-.09375,1.21679688-.18652344,1.21728516-.28125.74902344-.37402344,1.31054688v1.49755859l-.46875,1.21679688v.56201172l-.18652344.65527344-.28125,1.21679688-.46777344,2.99560547-.84277344,1.12353516-.93652344.65527344-1.31054688.09375-1.02929688.18701172h-.375l-1.77832031-.09375-.65527344.09375-.93554688-.09375-.5625.09375h-1.87207031l-1.21679688-.09375h-1.59179688l-.74804688-.65527344-.74902344-1.49755859-.46875-1.31054688-.09277344-.46826172-.09375-1.12353516-.09375-.56152344-.1875-1.96582031-.09375-.56152344-.37402344-1.96582031-.09375-.56201172-.1875-1.31054688-.09375-1.40429688-.28027344-1.02929688-.28125-1.40429688v-.56152344l-.28027344-1.31103516-.09375-.56152344-.28125-1.31054688-.09375-.56152344v-1.40429688l-.37402344-1.87207031-.1875-1.77880859-.37402344-2.62109375-.46875-2.99560547-.28027344-2.62109375-.56152344-3.37011719-.56152344-3.55712891h-.28125l-.09375,2.62109375-.09375,1.87207031-.09375,1.02978516-.18652344,1.59130859-.09375,2.34033203-.65527344,4.49365234-.375,3.65087891-.18652344.56152344-.28125,1.21679688.1875.65527344-.28125,1.12353516-.1875.65527344.09375.65527344-.09375.56152344-.18652344,1.31054688-.375,1.40429688-.37402344,1.87255859-.1875,1.31054688-.09375.56152344-.18652344.65527344-.375,2.71484375-.28027344,1.21679688-.09375.65527344v1.21728516l-.1875.56152344-.28125,1.68505859-.37402344,1.12304688-.28125.93652344-1.02929688.37402344h-9.92285156l-1.40429688-.18701172Z"/>
        </g>
      </g>
    </g>
  </g>
</svg>