<?xml version="1.0" encoding="UTF-8"?>
<svg id="Layer_2" data-name="Layer 2" xmlns="http://www.w3.org/2000/svg" xmlns:xlink="http://www.w3.org/1999/xlink" viewBox="0 0 711.636517440554599 557.33333333333394">
  <defs>
    <style>
      .cls-1 {
        fill: #fff;
      }

      .cls-2 {
        fill: #c4c8ce;
      }

      .cls-3 {
        font-family: AvenirNext-Medium, 'Avenir Next';
        font-size: 47.863498687744141px;
      }

      .cls-3, .cls-4, .cls-5, .cls-6 {
        isolation: isolate;
      }

      .cls-3, .cls-5 {
        fill: #4b5354;
      }

      .cls-7 {
        fill: url(#Dégradé_sans_nom_2);
      }

      .cls-4 {
        opacity: .959999978542328;
      }

      .cls-4, .cls-8, .cls-6, .cls-9 {
        fill: none;
        stroke-miterlimit: 10;
      }

      .cls-4, .cls-6 {
        stroke: #fff;
        stroke-linecap: round;
        stroke-width: 5px;
      }

      .cls-5 {
        font-family: ZingRustDemo-Base, 'Zing Rust Demo';
        font-size: 93.615432739257812px;
      }

      .cls-10 {
        fill: #93bab7;
      }

      .cls-11 {
        fill: #5eb44c;
      }

      .cls-12 {
        fill: #b5d99a;
      }

      .cls-13 {
        letter-spacing: -.004991539776903em;
      }

      .cls-8 {
        stroke-width: 1.61129999160767px;
      }

      .cls-8, .cls-9 {
        stroke: #5eb44c;
      }

      .cls-14 {
        letter-spacing: -.071992246194329em;
      }

      .cls-15 {
        letter-spacing: -.033996715011342em;
      }

      .cls-6 {
        opacity: .699999988079071;
      }

      .cls-9 {
        stroke-width: 2.81879997253418px;
      }

      .cls-16 {
        letter-spacing: .04299400457786em;
      }
    </style>
    <linearGradient id="Dégradé_sans_nom_2" data-name="Dégradé sans nom 2" x1="57.908025342740984" y1="2632.940893098686502" x2="57.908025342741013" y2="3128.787322582184061" gradientTransform="translate(297.910247802734375 3159.511814387897175) scale(1 -1)" gradientUnits="userSpaceOnUse">
      <stop offset="0" stop-color="#fff" stop-opacity="0"/>
      <stop offset=".529299964904785" stop-color="#fbe02f" stop-opacity=".200000002980232"/>
      <stop offset="1" stop-color="#fff" stop-opacity="0"/>
    </linearGradient>
  </defs>
  <g id="Affiche">
    <g id="Logo">
      <g id="Logo_2_-_Handicap" data-name="Logo 2 - Handicap">
        <g id="Couleur">
          <path class="cls-12" d="M318.343831044470789,10.039833004959291L141.918931911773143,111.893990067725099c-23.180456015742493,13.38641034781449-37.474470951398871,38.13624132032146-37.474470951398871,64.90906201594953v203.727182284095761c0,26.772878396418491,14.275089076296354,51.52265166813595,37.474470951398871,64.909119716740861l176.424899132697647,101.854128212366959c23.180484866137704,13.386468048605821,51.749531177300014,13.386468048605821,74.948941902797742,0l176.424899132698556-101.854128212366959c23.180484866137704-13.386410347812671,37.47447095139978-38.13624132032237,37.47447095139978-64.909119716740861V176.803052083674629c0-26.772878396418491-14.275060225902052-51.52265166813504-37.47447095139978-64.909119716740861L393.292772947268531,10.039804154564081c-23.199410725497728-13.38641034781358-51.76851473745046-13.38641034781358-74.948941902797742,.000028850395211Z"/>
          <path class="cls-7" d="M580.570498407461855,192.155847678896862v172.983739374930337c0,26.772878396417582-14.293986085262077,51.52265166813595-37.47447095139978,64.909119716739951l-149.803312209583964,86.482406757784702c-23.199353024707307,13.38641034781358-51.768457036660038,13.38641034781358-74.948884202007321,0l-149.803312209583055-86.482406757784702c-23.199381875102517-13.38641034781358-37.474470951398871-38.13624132032237-37.474470951398871-64.909119716739951V192.155847678896862c0-26.772878396418491,14.275089076296354-51.503725808775016,37.474470951398871-64.890193857379927L318.343831044470789,40.764321204371299c23.180484866137704-13.386439198208791,51.749531177300014-13.386439198208791,74.948941902797742,0l149.803312209583964,86.501332617145636c23.180427165347282,13.386468048604911,37.474413250609359,38.117315460961436,37.474413250609359,64.890193857379927Z"/>
          <g>
            <circle class="cls-9" cx="326.455062001050692" cy="73.398503624295472" r="11.609168292429329"/>
            <circle class="cls-9" cx="355.723730399858596" cy="109.057880801588908" r="11.609168292429104"/>
            <circle class="cls-9" cx="386.145722203847981" cy="73.398503624295472" r="11.60916829242899"/>
            <circle class="cls-8" cx="389.360002452451226" cy="160.126715750605172" r="6.636514147010643"/>
            <circle class="cls-8" cx="421.842893399072182" cy="127.30350554023812" r="6.636514147011098"/>
            <circle class="cls-8" cx="312.993005916585616" cy="160.126715750605172" r="6.636514147010985"/>
            <circle class="cls-8" cx="293.556206054032145" cy="131.708903211954976" r="6.636514147010985"/>
            <circle class="cls-8" cx="331.427716146469038" cy="198.319676948218785" r="6.636514147011553"/>
            <polyline class="cls-9" points="326.455062001050464 85.007671916724576 326.455062001050464 126.225770170916803 341.713343701051599 141.484051870917938 341.713343701051599 182.021511597617064 357.349796383520697 197.657906579294831 357.349796383520697 222.105154605196731 380.26555002177156 245.039834102809436"/>
            <polyline class="cls-8" points="312.993005916585389 166.763229897615929 312.993005916585389 188.639099885267569 291.136061788294683 210.477118154198251 291.136061788294683 217.869916565353378 346.818363460412911 273.533292378111582"/>
            <polyline class="cls-8" points="331.427716146468811 204.975059253799373 331.427716146468811 217.321585951012821 366.179517586313523 252.073387390857533"/>
            <polyline class="cls-9" points="355.723730399859051 120.666991393227363 355.723730399859051 177.93750733028628 432.733571445285634 254.928422516355567"/>
            <path class="cls-8" d="M389.360002452451226,166.763229897615929s-.548330614341467,21.308613513950149,0,21.856944128291616,74.835502148216619,74.83550214821571,74.835502148216619,74.83550214821571"/>
            <polyline class="cls-9" points="386.145722203847981 85.007671916724576 386.145722203847981 127.152214066934903 370.982012099859276 142.297056012354005 370.982012099859276 213.842632175314066 397.735964636916833 240.596584712372533"/>
            <polyline class="cls-8" points="421.842893399072636 133.939961986458911 421.842893399072636 155.626746482876115 407.000576699469093 170.469063182480568 407.000576699469093 188.620174025907545 471.796256661626103 253.415796287274134"/>
            <polyline class="cls-8" points="293.556206054032373 138.364343218326212 293.556206054032373 198.31967694821833 356.858185646470702 261.621598839866238"/>
          </g>
          <path class="cls-11" d="M569.717614379176666,111.893990067725099L393.29271524647811,10.039861855355412c-23.199353024707307-13.3864391982097-51.768457036660038-13.3864391982097-74.948884202007321,0L141.918931911773143,111.893990067725099c-23.199381875102517,13.38641034781449-37.474470951398871,38.117315460961436-37.474470951398871,64.90906201594953v203.708256424735737c0,26.772878396417582,14.275089076296354,51.52265166813595,37.474470951398871,64.909119716739951l176.424899132697647,101.854128212367868c23.180484866137704,13.386468048604002,51.749531177300014,13.386468048604002,74.948941902797742,0l176.424899132698556-101.854128212367868c23.180484866137704-13.38641034781358,37.47447095139978-38.13624132032237,37.47447095139978-64.909119716739951V176.803052083674629c-.000057700790421-26.791804255779425-14.294043786052498-51.52265166813504-37.474528652190202-64.90906201594953Zm10.852884028285189,253.2455969861021c0,26.772878396417582-14.293986085262077,51.52265166813595-37.47447095139978,64.909119716739951l-149.803312209583964,86.482406757784702c-23.199353024707307,13.38641034781358-51.768457036660038,13.38641034781358-74.948884202007321,0l-149.803312209583055-86.482406757784702c-23.199381875102517-13.38641034781358-37.474470951398871-38.13624132032237-37.474470951398871-64.909119716739951V192.155847678896862c0-26.772878396418491,14.275089076296354-51.503725808775016,37.474470951398871-64.890193857379927L318.343831044470789,40.764321204371299c23.180484866137704-13.386439198208791,51.749531177300014-13.386439198208791,74.948941902797742,0l149.803312209583964,86.501332617145636c23.180484866137704,13.38641034781358,37.47447095139978,38.117315460961436,37.47447095139978,64.890193857379927v172.983739374930337h-.000057700790421Z"/>
          <g>
            <text class="cls-3" transform="translate(184.570672787864169 385.310546874998181)"><tspan class="cls-14" x="0" y="0">L</tspan><tspan x="21.01171875" y="0">’Enseignement</tspan></text>
            <text/>
          </g>
          <line class="cls-4" x1="271.283296925343166" y1="446.233432366586385" x2="440.183089733733141" y2="446.233432366586385"/>
          <line class="cls-6" x1="311.631671160808764" y1="468.922306495673183" x2="399.985949270780111" y2="468.922306495673183"/>
          <polygon class="cls-1" points="661.550846264846768 318.967760513577559 711.636517440554599 372.267711937887725 607.192085330576447 372.267711937887725 607.192085330576447 265.667809089266484 711.636517440554599 265.667809089266484 661.550846264846768 318.967760513577559"/>
          <polygon class="cls-1" points="50.085700026102131 318.967760513577559 0 265.667809089266484 104.444460960374272 265.667809089266484 104.444460960374272 372.267711937887725 0 372.267711937887725 50.085700026102131 318.967760513577559"/>
        </g>
        <g id="Banderole">
          <rect class="cls-10" x="86.595875362761944" y="228.533657401614619" width="17.848585597612328" height="98.545334068541706"/>
          <rect class="cls-10" x="90.755496516349012" y="228.533657401614619" width="13.670038584664326" height="106.599902848620331"/>
          <g>
            <rect class="cls-2" x="86.595875362761944" y="228.533657401614619" width="17.848585597612328" height="98.545334068541706"/>
            <rect class="cls-2" x="90.755496516349012" y="228.533657401614619" width="13.670038584664326" height="106.599902848620331"/>
          </g>
          <g>
            <rect class="cls-2" x="607.183776416710316" y="228.541273905990238" width="17.848585597612328" height="98.545334068542616"/>
            <rect class="cls-2" x="607.200451945232999" y="228.538850472779814" width="13.670067435059536" height="106.59990284862215"/>
          </g>
          <polygon class="cls-1" points="611.124855825393752 320.934145760986212 355.81830199587057 320.934145760986212 100.511719315951268 320.934145760986212 100.511719315951268 214.334242912364061 356.064049663604237 214.334242912364061 611.124855825393752 214.334242912364061 611.124855825393752 320.934145760986212"/>
          <text class="cls-5" transform="translate(155.711482800681551 297.019531249998181)"><tspan x="0" y="0">H</tspan><tspan class="cls-13" x="47.087890625" y="0">A</tspan><tspan x="88.373046875" y="0">C</tspan><tspan class="cls-16" x="129.1884765625" y="0">K</tspan><tspan class="cls-15" x="179.45849609375" y="0">A</tspan><tspan x="218.0283203125" y="0">THON</tspan></text>
        </g>
      </g>
    </g>
  </g>
</svg>