<?xml version="1.0" encoding="UTF-8" standalone="no"?>
<!-- Generator: Adobe Illustrator 23.0.3, SVG Export Plug-In . SVG Version: 6.00 Build 0)  -->

<svg
        xmlns:inkscape="http://www.inkscape.org/namespaces/inkscape"
        xmlns:sodipodi="http://sodipodi.sourceforge.net/DTD/sodipodi-0.dtd"
        version="1.1"
        id="arrow_svg"
        x="0px"
        y="0px"
        fill="#f5cb98"
        viewBox="0 0 42.7 24.9"
        style="enable-background:new 0 0 42.7 24.9;"
        xml:space="preserve"
        sodipodi:docname="arrow_green.svg"
        inkscape:version="1.2.1 (9c6d41e410, 2022-07-14)"
        xmlns="http://www.w3.org/2000/svg"><defs
   id="defs18" />
    <sodipodi:namedview
            id="namedview16"
            pagecolor="#505050"
            bordercolor="#eeeeee"
            borderopacity="1"
            inkscape:showpageshadow="0"
            inkscape:pageopacity="0"
            inkscape:pagecheckerboard="0"
            inkscape:deskcolor="#505050"
            showgrid="false"
            inkscape:zoom="32.690764"
            inkscape:cx="18.919717"
            inkscape:cy="12.495884"
            inkscape:window-width="1920"
            inkscape:window-height="1001"
            inkscape:window-x="-9"
            inkscape:window-y="-9"
            inkscape:window-maximized="1"
            inkscape:current-layer="g13"/>
    <g
            id="g13"
            style="fill:#1BB17A;fill-opacity:1">
	<path
            d="M42.3,2.6l-2.1-2.1c-0.3-0.3-0.6-0.4-1-0.4c-0.4,0-0.7,0.1-1,0.4L21.4,17.3L4.5,0.4C4.3,0.1,3.9,0,3.6,0   c-0.4,0-0.7,0.1-1,0.4L0.4,2.6C0.1,2.9,0,3.2,0,3.6c0,0.4,0.1,0.7,0.4,1l20,20c0.3,0.3,0.6,0.4,1,0.4c0.4,0,0.7-0.1,1-0.4l20-20   c0.3-0.3,0.4-0.6,0.4-1C42.7,3.2,42.6,2.9,42.3,2.6z"
            id="path11"
            style="fill:#1BB17A;fill-opacity:1"/>
</g>
</svg>
